<svg xmlns="http://www.w3.org/2000/svg" width="147.148" height="218.838" viewBox="0 0 147.148 218.838"><defs><style>.a{fill:#ffbe9d;}.b{fill:#267fc9;}.c{fill:#263238;}.d{opacity:0.3;}.e{opacity:0.6;}.f{fill:#455a64;}.g{fill:#fafafa;}.h{opacity:0.4;}.i{fill:#eb996e;}.j{fill:#fff;}</style></defs><g transform="translate(-21.961 -101.75)"><path class="a" d="M28.055,419.033a3.964,3.964,0,0,0-3.723,3.173,38.194,38.194,0,0,0-.876,4.244s-3.362,3.024,0,3.832,4.582-3.723,4.582-3.723l.516-7.55Z" transform="translate(0 -135.532)"/><path class="b" d="M91.38,272.717s10.505-35.279,11.576-36.8c1.764-2.515,18.771-10.076,18.771-10.076l4.582-9.3L154.555,212l7.005,9.016,19.687,14.469-1.375,49.9-.733,34.844,3.729,43.5-89.415-.166L97.5,354.4l4.244-79.116Z" transform="translate(-29.655 -47.099)"/><path class="c" d="M112.385,288.766a.944.944,0,0,1-.034-.286,5.567,5.567,0,0,0-.046-.819c0-.71-.063-1.718-.086-3.007-.046-2.543-.046-6.055.063-9.932s.315-7.383.51-9.921c.092-1.266.183-2.291.258-3l.086-.813a1.58,1.58,0,0,1,.052-.281.848.848,0,0,1,0,.286,7.357,7.357,0,0,1-.034.813c-.04.756-.1,1.77-.166,3.007-.137,2.538-.309,6.037-.418,9.915s-.143,7.378-.149,9.921v3.826A1.014,1.014,0,0,1,112.385,288.766Z" transform="translate(-38.545 -67.907)"/><g class="d" transform="translate(91.344 208.567)"><path d="M145.839,290.39a1.718,1.718,0,0,1,.327-1.105,2.864,2.864,0,0,1,3.339-.825c1.5.716,2.24,2.434,2.543,4.067.326,1.787.281,3.632.619,5.419a6.463,6.463,0,0,0,2.721,4.531c1.942,1.146,4.491.63,6.53,1.592,3.036,1.426,3.74,5.373,3.9,8.73.286,6.352,0,12.711-.263,19.063L163.8,372.427l-1.6,20.352-8.225,3.494L143.09,324.758Z" transform="translate(-143.09 -288.231)"/></g><path class="c" d="M149.784,266.1a.573.573,0,0,1-.212.115,1.443,1.443,0,0,1-.7.069,2.4,2.4,0,0,1-1.867-1.633,4.319,4.319,0,0,1-.166-1.764,18.979,18.979,0,0,1,.332-1.976c.275-1.386.573-2.9.894-4.485.642-3.179,1.237-6.055,1.684-8.134l.573-2.457a6.073,6.073,0,0,1,.235-.894,5.006,5.006,0,0,1-.12.917c-.12.636-.269,1.472-.453,2.48-.4,2.085-.962,4.966-1.6,8.145-.327,1.587-.636,3.1-.917,4.479a7.483,7.483,0,0,0-.235,3.626,2.291,2.291,0,0,0,1.684,1.581A1.994,1.994,0,0,0,149.784,266.1Z" transform="translate(-53.336 -61.17)"/><path class="c" d="M154.963,258.692c0,.029-.235.029-.624.149a2.9,2.9,0,0,0-1.38.974,2.44,2.44,0,0,0-.424,2.349,2.555,2.555,0,0,0,4.737.378,2.435,2.435,0,0,0-.046-2.383,2.864,2.864,0,0,0-1.209-1.18c-.367-.183-.573-.218-.573-.246s.057,0,.166,0a1.755,1.755,0,0,1,.47.132,2.83,2.83,0,0,1,1.346,1.18,2.864,2.864,0,0,1,.4,1.2,2.532,2.532,0,0,1-.286,1.421,2.818,2.818,0,0,1-5.247-.418,2.514,2.514,0,0,1-.057-1.449,2.9,2.9,0,0,1,2.091-2.068,1.719,1.719,0,0,1,.487-.057A.448.448,0,0,1,154.963,258.692Z" transform="translate(-55.616 -67.035)"/><path class="b" d="M117.353,315.408,65.709,306.06,41.6,311.353l53.947,9.709Z" transform="translate(-8.39 -87.281)"/><g class="e" transform="translate(33.21 218.779)"><path d="M117.353,315.408,65.709,306.06,41.6,311.353l53.947,9.709Z" transform="translate(-41.6 -306.06)"/></g><path class="f" d="M116.2,320.84c.7-9.52,3.311-33.7,5.27-43.04a21.878,21.878,0,0,1,2.864-8.019c1.6-2.366,4.434-4.1,7.252-3.66a7.758,7.758,0,0,1,5.568,4.771,16.9,16.9,0,0,1,1.3,7.487c-.487,11.548-1.484,24.482-1.472,35.187" transform="translate(-40.258 -70.189)"/><path class="c" d="M137.473,322.12a19.37,19.37,0,0,1-1.913.607,38.375,38.375,0,0,0-8.781,3.981,19.046,19.046,0,0,1-1.718,1.042,3.851,3.851,0,0,1,.407-.361c.275-.218.682-.51,1.2-.859a30.505,30.505,0,0,1,4.256-2.36,29.662,29.662,0,0,1,4.582-1.644c.6-.16,1.094-.275,1.432-.338A2.1,2.1,0,0,1,137.473,322.12Z" transform="translate(-44.043 -94.141)"/><path class="c" d="M138.874,302.938c0,.046-.773.218-2.011.6a27.225,27.225,0,0,0-8.9,4.674c-1.014.8-1.6,1.352-1.638,1.317a2.445,2.445,0,0,1,.372-.43,14.142,14.142,0,0,1,1.146-1.048,22.94,22.94,0,0,1,4.222-2.864,23.227,23.227,0,0,1,4.749-1.862,14.745,14.745,0,0,1,1.506-.338A1.805,1.805,0,0,1,138.874,302.938Z" transform="translate(-44.586 -85.945)"/><path class="c" d="M139.123,287.47c0,.052-.613.08-1.581.258a13.855,13.855,0,0,0-3.626,1.209,14.016,14.016,0,0,0-3.15,2.165c-.727.664-1.146,1.146-1.146,1.105a1.28,1.28,0,0,1,.235-.367,8.061,8.061,0,0,1,.773-.894,12.029,12.029,0,0,1,6.874-3.437,8.447,8.447,0,0,1,1.18-.08A1.209,1.209,0,0,1,139.123,287.47Z" transform="translate(-45.991 -79.322)"/><path class="g" d="M116.336,318.774a.172.172,0,0,0,0,.052v33.051c0,1.449-1.146,2.944-3.317,4.078a20.063,20.063,0,0,1-9.165,1.913H103.8c-7.819,0-12.493-3.087-12.493-5.991V318.825a.316.316,0,0,0,0-.052v-.063c0-3.231,2.389-6.6,4.783-9.938,1.6-2.222,1.988-5.43,2.062-7.309v-.613h-.218a1.718,1.718,0,0,1-1.862-1.6v-1.4a1.718,1.718,0,0,1,1.862-1.61H109.68a1.89,1.89,0,0,1,1.718.979,1.472,1.472,0,0,1,.143.63v1.4a1.718,1.718,0,0,1-1.867,1.6h-.212v.613c.074,1.879.458,5.087,2.068,7.309,2.389,3.334,4.766,6.708,4.783,9.938A.085.085,0,0,1,116.336,318.774Z" transform="translate(-29.626 -83.085)"/><path class="c" d="M116.22,318.679a2.49,2.49,0,0,0,0-.338,8.526,8.526,0,0,0-.12-.985,12.9,12.9,0,0,0-1.369-3.586,48.377,48.377,0,0,0-3.38-5.127,10.431,10.431,0,0,1-1.535-3.557,19.142,19.142,0,0,1-.527-4.325v-.1h.1a2.177,2.177,0,0,0,1.243-.292,1.489,1.489,0,0,0,.722-1.037v-1.415a1.426,1.426,0,0,0-.51-1.22,1.959,1.959,0,0,0-1.329-.435H98a1.947,1.947,0,0,0-1.524.538,1.386,1.386,0,0,0-.367.722,8.625,8.625,0,0,0,0,.876v.894a1.392,1.392,0,0,0,.355.745,1.947,1.947,0,0,0,1.587.573h.137v.143a19.969,19.969,0,0,1-.435,4.01,11.027,11.027,0,0,1-1.581,3.849c-.808,1.146-1.638,2.291-2.406,3.506a18.9,18.9,0,0,0-1.948,3.855,8.741,8.741,0,0,0-.464,2.131c-.04.716,0,1.484,0,2.228v30.164a10.006,10.006,0,0,0,.092,1.919,3.769,3.769,0,0,0,.9,1.615,8.913,8.913,0,0,0,3.076,2.125,17.433,17.433,0,0,0,3.551,1.06,24.339,24.339,0,0,0,3.614.407,24.661,24.661,0,0,0,6.954-.636,15.216,15.216,0,0,0,3.145-1.146,8.065,8.065,0,0,0,2.555-1.919,4.009,4.009,0,0,0,.75-1.34,4.938,4.938,0,0,0,.126-1.518v-8.775c0-7.286.034-13.174.046-17.276s.052-6.335.052-6.335a1.684,1.684,0,0,1,0,.418v5.917c0,4.09,0,9.99.046,17.276v9.554a3.208,3.208,0,0,1-.126.808,4.17,4.17,0,0,1-.8,1.426,8.186,8.186,0,0,1-2.629,1.988,15.615,15.615,0,0,1-3.19,1.146,25.055,25.055,0,0,1-6.942.664,24.188,24.188,0,0,1-3.654-.407,17.9,17.9,0,0,1-3.614-1.077,9.015,9.015,0,0,1-3.185-2.171,3.975,3.975,0,0,1-.968-1.718,9.737,9.737,0,0,1-.1-1.988V318.089a9.165,9.165,0,0,1,.481-2.2,19.052,19.052,0,0,1,1.982-3.918c.768-1.22,1.61-2.371,2.417-3.511A10.883,10.883,0,0,0,97.46,304.7a20.162,20.162,0,0,0,.441-3.941l.132.132a2.217,2.217,0,0,1-1.781-.659,1.6,1.6,0,0,1-.418-.888c0-.338,0-.619,0-.928a8.432,8.432,0,0,1,0-.922,1.655,1.655,0,0,1,.441-.853,2.222,2.222,0,0,1,1.718-.619h11.49a2.188,2.188,0,0,1,1.466.493,1.627,1.627,0,0,1,.573,1.386v1.443a1.678,1.678,0,0,1-.813,1.18,2.343,2.343,0,0,1-1.352.309l.092-.092a14.361,14.361,0,0,0,2,7.8,47.252,47.252,0,0,1,3.345,5.155,12.419,12.419,0,0,1,1.329,3.626,7.737,7.737,0,0,1,.1,1.025A.933.933,0,0,1,116.22,318.679Z" transform="translate(-29.509 -82.991)"/><path class="c" d="M114.084,304.026a44.907,44.907,0,0,1-5.224.149,45.053,45.053,0,0,1-5.23-.149,46.638,46.638,0,0,1,5.23-.149A46.492,46.492,0,0,1,114.084,304.026Z" transform="translate(-34.889 -86.34)"/><path class="b" d="M116.084,341.83a3.731,3.731,0,0,0-3.58.155,13.257,13.257,0,0,1-3.437,1.484,6.619,6.619,0,0,1-4.2-1.071,26.532,26.532,0,0,0-3.9-2.125,7.584,7.584,0,0,0-7.813,1.844v28.377s1.558,4.84,12.533,4.084,10.11-5.608,10.11-5.608Z" transform="translate(-30.416 -101.725)"/><path class="f" d="M76.77,302.716a8.019,8.019,0,0,0-6.776-9.165.813.813,0,0,0-.573.063c-.235.16-.241.5-.218.779a9.738,9.738,0,0,0,7.561,8.592" transform="translate(-20.178 -81.926)"/><path class="b" d="M61.44,323.8c2.028,4.181,4.943,7,8.558,7.137.722,0,1.266-.453,1.953-.493a4.582,4.582,0,0,1,1.146.435,1.648,1.648,0,0,0,.573.137c3.735-.2,6.914-2.824,9.056-7.217,2.984-6.146,2.062-12.751-2.056-14.761a10.1,10.1,0,0,0-1.684-.659,7.1,7.1,0,0,0-2.045-.241A15.468,15.468,0,0,0,72.3,309.2l-.2.075c-3.351-1.478-6.02-1.489-8.592-.235C59.366,311.047,58.45,317.651,61.44,323.8Z" transform="translate(-16.115 -88.166)"/><path class="g" d="M62.58,318.937a3.259,3.259,0,0,1-.344-1.237,6.645,6.645,0,0,1,2.091-5.654,3.224,3.224,0,0,1,1.065-.716c0,.046-.378.309-.922.865a7.406,7.406,0,0,0-1.587,2.532,7.252,7.252,0,0,0-.435,2.956A10.25,10.25,0,0,1,62.58,318.937Z" transform="translate(-17.186 -89.532)"/><path class="g" d="M63.924,328.7c-.08,0-.218-.269-.3-.647s-.092-.693,0-.71.212.269.3.647S64,328.68,63.924,328.7Z" transform="translate(-17.768 -96.371)"/><path class="c" d="M90.483,292c0,.052-.768.349-1.93,1.048a15.086,15.086,0,0,0-1.925,1.375,16.9,16.9,0,0,0-2.033,2.062,17.184,17.184,0,0,0-1.615,2.406,15.165,15.165,0,0,0-.962,2.159c-.453,1.272-.573,2.108-.647,2.1a2.658,2.658,0,0,1,.063-.573,4.474,4.474,0,0,1,.137-.682,8.671,8.671,0,0,1,.246-.894,13.567,13.567,0,0,1,.922-2.222,14.458,14.458,0,0,1,3.717-4.542,13.173,13.173,0,0,1,2-1.346,8.634,8.634,0,0,1,.825-.418,5.233,5.233,0,0,1,.642-.269,2.516,2.516,0,0,1,.561-.2Z" transform="translate(-25.379 -81.274)"/><path class="b" d="M36.76,315.3l-6.49,81.865,60.488,14.624s21.1-7.154,21.389-7.641.367-84.775.367-84.775l-21.807,5.654Z" transform="translate(-3.55 -91.228)"/><g class="h" transform="translate(26.72 224.072)"><path d="M36.76,315.3l-6.49,81.865,60.488,14.624s21.1-7.154,21.389-7.641.367-84.775.367-84.775l-21.807,5.654Z" transform="translate(-30.27 -315.3)"/></g><path class="a" d="M174.218,131.51l-3.374,47.778a14.893,14.893,0,0,1-14.859,13.845h0a14.893,14.893,0,0,1-14.893-15.867c.3-4.548.573-8.277.573-8.277s-11.565-1.8-11.708-13.364c-.08-6.679,1.071-21.835,2.056-33.446A15.168,15.168,0,0,1,147.164,108.3h6.983a21.406,21.406,0,0,1,20.071,23.21Z" transform="translate(-46.134 -2.798)"/><path class="i" d="M150.286,210.931a27.922,27.922,0,0,0,15.059-4.451s-3.723,8.414-15.265,7.372Z" transform="translate(-54.732 -44.74)"/><path class="c" d="M137.361,152.056c.206.218,1.455-.71,3.236-.7s3.076.894,3.271.676c.092-.1-.115-.481-.682-.9a4.582,4.582,0,0,0-2.618-.808,4.433,4.433,0,0,0-2.578.831C137.447,151.574,137.264,151.964,137.361,152.056Z" transform="translate(-49.288 -20.749)"/><path class="c" d="M171,155.8a1.661,1.661,0,0,0,1.592,1.667,1.587,1.587,0,0,0,1.718-1.489,1.65,1.65,0,0,0-1.592-1.667A1.581,1.581,0,0,0,171,155.8Z" transform="translate(-63.669 -22.453)"/><path class="c" d="M140.18,155.8a1.655,1.655,0,0,0,1.592,1.667,1.581,1.581,0,0,0,1.718-1.489,1.644,1.644,0,0,0-1.587-1.667,1.575,1.575,0,0,0-1.724,1.489Z" transform="translate(-50.503 -22.452)"/><path class="c" d="M167.551,152.061c.206.212,1.461-.716,3.236-.71s3.076.894,3.271.676c.092-.1-.115-.481-.682-.9a4.582,4.582,0,0,0-2.618-.808,4.433,4.433,0,0,0-2.578.831C167.637,151.574,167.454,151.964,167.551,152.061Z" transform="translate(-62.185 -20.749)"/><path class="c" d="M152.968,165.333a12.226,12.226,0,0,0-2.864-.516c-.452-.052-.882-.137-.957-.447a2.291,2.291,0,0,1,.3-1.346l1.346-3.437c1.862-4.92,3.213-8.964,3.013-9.039s-1.873,3.855-3.735,8.775q-.716,1.793-1.289,3.454a2.675,2.675,0,0,0-.235,1.781,1.146,1.146,0,0,0,.75.664,3.088,3.088,0,0,0,.768.109A11.13,11.13,0,0,0,152.968,165.333Z" transform="translate(-54.051 -20.847)"/><path class="c" d="M161.215,178.51c-.286,0-.292,1.913-1.942,3.282s-3.706,1.146-3.723,1.426c0,.12.458.372,1.329.4a4.817,4.817,0,0,0,3.1-1.083,4.21,4.21,0,0,0,1.506-2.755C161.564,178.98,161.347,178.5,161.215,178.51Z" transform="translate(-57.069 -32.792)"/><path class="c" d="M166.763,142.264c.178.481,1.948.252,4.01.5s3.775.819,4.05.39c.126-.206-.172-.664-.848-1.146a6.8,6.8,0,0,0-3-1.048,6.73,6.73,0,0,0-3.156.372C167.073,141.656,166.689,142.034,166.763,142.264Z" transform="translate(-61.855 -16.731)"/><path class="c" d="M137.776,143.1c.315.407,1.541,0,3.013-.034s2.715.275,3.007-.149c.12-.206-.074-.613-.619-.991a4.342,4.342,0,0,0-4.846.149C137.811,142.484,137.639,142.9,137.776,143.1Z" transform="translate(-49.456 -16.877)"/><path class="a" d="M200.087,163.728c.2-.086,7.951-2.349,7.7,5.556s-8.14,6.02-8.145,5.8S200.087,163.728,200.087,163.728Z" transform="translate(-75.904 -26.322)"/><path class="i" d="M204,174.058c.034,0,.137.1.367.218a1.369,1.369,0,0,0,1.025.052c.848-.281,1.592-1.581,1.673-3.007a4.451,4.451,0,0,0-.321-1.982,1.6,1.6,0,0,0-1-1.094.7.7,0,0,0-.825.355c-.115.218-.069.378-.109.389s-.166-.137-.092-.464a.916.916,0,0,1,.326-.487,1.042,1.042,0,0,1,.768-.178,1.953,1.953,0,0,1,1.4,1.272,4.743,4.743,0,0,1,.407,2.223c-.1,1.592-.968,3.053-2.119,3.351a1.484,1.484,0,0,1-1.254-.252C204,174.235,204,174.075,204,174.058Z" transform="translate(-77.766 -28.236)"/><path class="c" d="M181.012,138.747a4.158,4.158,0,0,0-3.8,1.953c-.516,1.128-.63,2.406-1.146,3.534s-1.673,2.154-2.864,1.867a2.429,2.429,0,0,1-1.644-1.8,6.575,6.575,0,0,1,0-2.549c.464-3.695,1.237-7.355,1.386-11.072a18.99,18.99,0,0,0-2.331-10.752c-1.953-3.168-5.539-5.5-9.251-5.2-2.457.2-4.708,1.484-7.149,1.822a9.646,9.646,0,0,1-8.019-2.675c-.269-.263-1.5-1.083-1.5-1.083a4.521,4.521,0,0,1,.831-2.44c4.84-4.479,13.57-5.728,19.968-4.118s12.4,6.123,15.145,12.121,1.936,14.32.418,20.4" transform="translate(-52.429 -1.627)"/><path class="c" d="M130.564,125.156c1.037,2.4,3.683,3.8,6.3,4.061a20.448,20.448,0,0,0,7.716-1.146,58.848,58.848,0,0,1,11.886-1.753c.389,0,.859,0,1.071-.327.275-.441-.166-.974-.573-1.289-3.437-2.7-11.783-4.359-16.159-4.542s-8.964,1.718-11.336,5.379" transform="translate(-45.927 -7.86)"/><path class="b" d="M133.37,117.594s30.359-9.738,43.464,16.491c0,0,1.959-6.57,1.959-10.093,0-2.349-1.4-16.359-15.815-20.764C162.978,103.228,141.263,94.945,133.37,117.594Z" transform="translate(-47.593)"/><g class="h" transform="translate(85.777 101.75)"><path d="M133.37,117.594a14.091,14.091,0,0,1,9.646-4.376c8.953-.4,25.7,4.634,33.8,20.867,0,0,1.959-6.57,1.959-10.093,0-2.349-1.4-16.359-15.815-20.764C162.978,103.228,141.263,94.945,133.37,117.594Z" transform="translate(-133.37 -101.75)"/></g><path class="b" d="M164.564,131.488a57.189,57.189,0,0,0-17.677-16.926c-6.954-4.359-18.484-8.667-26.429-10.78a17.255,17.255,0,0,0-7.3-.762c-2.434.424-4.817,2.039-5.419,4.434-.756,3,4.582,7.618,7.063,9.434a80.965,80.965,0,0,0,7.6,4.485s-.069-5.556,8.827-6.7C143.313,113.112,164.564,131.488,164.564,131.488Z" transform="translate(-36.612 -0.479)"/><path class="g" d="M157.064,109.961a28.647,28.647,0,0,0-8.764-2.979,11.014,11.014,0,0,1,2.383-1.432,22.665,22.665,0,0,1,6.828,2.291Z" transform="translate(-53.971 -1.624)"/><path class="b" d="M224.585,249.772s-8.294,9.48-7.378,22.672c.126,1.827.218,4.376.441,6.2,1.4,11.319,3.563,21.824,3.563,21.824H222l28.921-7.143s-4.359-25.106-5.361-28.44c-3.2-10.671-14.183-16.543-14.183-16.543Z" transform="translate(-83.378 -62.623)"/><path class="c" d="M157.156,407.027V400.5c0-4.222,0-10.31.034-17.94.052-15.231.126-36.425.212-60.328l.183.143-11,2.864-10.8,2.8.109-.143c.149,11.983.109,23.29.052,33.509s-.115,19.344-.16,26.973,0,13.747,0,17.986v4.857c0-1.146-.04-2.749-.074-4.857-.052-4.222-.086-10.356-.08-17.986s.063-16.76.1-26.973.069-21.526-.086-33.5v-.12l.115-.029,10.8-2.8,11-2.864.189-.052v.195c-.126,23.9-.235,45.1-.309,60.328-.052,7.607-.1,13.719-.126,17.94,0,2.1-.034,3.729-.046,4.84v1.26A.694.694,0,0,1,157.156,407.027Z" transform="translate(-48.558 -94.107)"/><path class="b" d="M144.72,217.111s-1.146,11,2.555,12.716c4.176,1.925,8.34.04,10.883-1.592,6.822-4.353,16.961-16.445,16.961-16.445l6.874,8.924s-17.31,20.8-20.787,20.667c-2.291-.086-5.814-2.291-8.019-3.844A14.9,14.9,0,0,1,150,234.519l-3-3.809a22.57,22.57,0,0,0-8.856,7.24s-1-7.7.8-11.2,5.367-9.526,5.367-9.526Z" transform="translate(-49.515 -47.009)"/><path class="c" d="M138.468,233.846a.716.716,0,0,1-.069.189c-.052.137-.126.315-.223.538a12.026,12.026,0,0,0-.51,2.188,34.224,34.224,0,0,0,0,8.248l-.206-.04a15.209,15.209,0,0,1,3.712-4.227,27.634,27.634,0,0,1,5.487-3.477l.092-.046.069.08c1.209,1.4,2.486,2.864,3.832,4.348a27.574,27.574,0,0,0,4.519,4.17,11.3,11.3,0,0,0,2.56,1.358,8.422,8.422,0,0,0,1.375.372,5.625,5.625,0,0,0,1.386.052,8.719,8.719,0,0,0,4.743-2.36h0L177.086,232.6l3.437-3.626.922-.957.241-.246.092-.074-.069.092-.229.263-.888.985-3.38,3.683-11.765,12.7h0a12.747,12.747,0,0,1-2.211,1.581,6.873,6.873,0,0,1-2.692.859,6.3,6.3,0,0,1-1.466-.052,8.336,8.336,0,0,1-1.426-.384,11.777,11.777,0,0,1-2.641-1.392,27.7,27.7,0,0,1-4.582-4.216c-1.352-1.489-2.629-2.956-3.832-4.365l.166.034a27.863,27.863,0,0,0-5.442,3.437,15.179,15.179,0,0,0-3.637,4.124l-.172.3-.034-.338a32.851,32.851,0,0,1,.092-8.294,11.271,11.271,0,0,1,.573-2.182c.1-.241.195-.412.252-.533A1.356,1.356,0,0,1,138.468,233.846Z" transform="translate(-49.254 -53.805)"/><g class="d" transform="translate(89.532 175.097)"><path d="M140.031,244.017a1.472,1.472,0,0,0,.424,1.678,1.4,1.4,0,0,0,1.426-.258,5.321,5.321,0,0,0,.962-1.174,12.51,12.51,0,0,1,2.446-2.623c.922-.745,2.188-1.375,3.248-.848a3.666,3.666,0,0,1,1.432,1.827c1.438,2.939,3.162,5.929,5.974,7.607a11.432,11.432,0,0,0,9.526.659,18.822,18.822,0,0,0,7.859-5.768,55.567,55.567,0,0,0,5.436-8.214,21.147,21.147,0,0,0,3.007-7.1c-.355.2-1.191,1.489-1.547,1.69,0,0-13.352,14.7-14.607,15.466S160.9,252.792,151.1,241.8l-3.242-3.517S141.687,241.279,140.031,244.017Z" transform="translate(-139.925 -229.8)"/></g><rect class="j" width="14.853" height="4.485" transform="translate(110.717 218.786) rotate(8.72)"/><path class="a" d="M208.385,327.84l-22.912,5.539,2.646,21.612-43.877,32.953c-1.753.246-3.551.527-4.548.779-2.4.573-6.639,6.616-7.836,7.217l-8.552,6.6s-.75,3,3.15,2.4,8.248-3.6,8.7-3.6,1.816.911,1.146,2.864c-.573,1.718-2.921,7.63-2.921,7.63l-2.9,5.327s12.556.412,16.039-4.244c2.383-3.162,9.738-12.126,9.738-12.126S207.9,375.383,211,370.061C215.225,362.821,208.385,327.84,208.385,327.84Z" transform="translate(-43.27 -96.585)"/><path class="i" d="M245.815,384.342a14.271,14.271,0,0,0-.1-2.36,8.225,8.225,0,0,0-7.761-7.023,14.21,14.21,0,0,0-2.36.132,2.182,2.182,0,0,1,.619-.189,7.292,7.292,0,0,1,1.753-.155,8.145,8.145,0,0,1,7.956,7.206,7.3,7.3,0,0,1,0,1.759A2.19,2.19,0,0,1,245.815,384.342Z" transform="translate(-91.261 -116.622)"/><path class="i" d="M149.852,469.69a6.588,6.588,0,0,1-.3,1.443,15.467,15.467,0,0,1-1.272,3.339,6.657,6.657,0,0,1-2.417,2.641,3.634,3.634,0,0,1-1.014.412.865.865,0,0,1-.4.04,8.824,8.824,0,0,0,1.306-.63,7.2,7.2,0,0,0,2.291-2.606,19.961,19.961,0,0,0,1.3-3.259,8.459,8.459,0,0,1,.5-1.38Z" transform="translate(-52.327 -157.183)"/><path class="i" d="M160.933,466.2a5.688,5.688,0,0,1-.441,1.392,27.442,27.442,0,0,1-1.5,3.2,27.9,27.9,0,0,1-1.9,2.979,5.953,5.953,0,0,1-.939,1.146,8.778,8.778,0,0,1,.768-1.243c.493-.75,1.146-1.8,1.81-3s1.2-2.291,1.57-3.133A8.482,8.482,0,0,1,160.933,466.2Z" transform="translate(-57.325 -155.692)"/><path class="c" d="M162.232,400.9a3.242,3.242,0,0,1,.1.733c.052.47.092,1.146.115,2a39.312,39.312,0,0,1-1.89,13.037c-.264.8-.493,1.449-.676,1.885a3.635,3.635,0,0,1-.3.67,3.3,3.3,0,0,1,.195-.71c.149-.447.349-1.1.573-1.907a46.973,46.973,0,0,0,1.4-6.421,48.011,48.011,0,0,0,.481-6.553v-1.993A3.93,3.93,0,0,1,162.232,400.9Z" transform="translate(-58.79 -127.796)"/><path class="c" d="M142.54,412.91a15.293,15.293,0,0,1,.722,1.8c.424,1.146,1.014,2.669,1.718,4.359s1.358,3.208,1.844,4.3a15.753,15.753,0,0,1,.75,1.793,9.875,9.875,0,0,1-.939-1.718c-.538-1.077-1.232-2.583-1.93-4.279s-1.254-3.259-1.627-4.4A10.482,10.482,0,0,1,142.54,412.91Z" transform="translate(-51.511 -132.926)"/><path class="c" d="M109.616,436.749a1.5,1.5,0,0,1-.361.1l-1.048.252c-.458.109-1.014.235-1.673.344s-1.4.269-2.234.372-1.718.246-2.721.332-2.039.16-3.145.223a60.025,60.025,0,0,1-14.366-1.094c-1.083-.235-2.119-.441-3.07-.7s-1.839-.493-2.641-.739-1.524-.493-2.154-.7-1.146-.418-1.6-.573l-1-.4a2.636,2.636,0,0,1-.344-.16,1.422,1.422,0,0,1,.367.1l1.02.349c.435.16.98.355,1.61.573s1.352.447,2.159.659,1.684.481,2.641.7,1.982.453,3.064.676a69.52,69.52,0,0,0,7.12.951,68.444,68.444,0,0,0,7.183.137c1.106-.057,2.154-.1,3.133-.195s1.885-.189,2.715-.292,1.575-.229,2.234-.332,1.22-.2,1.678-.292l1.06-.195a1.677,1.677,0,0,1,.372-.092Z" transform="translate(-21.915 -141.936)"/><path class="c" d="M128.968,419.261a15.347,15.347,0,0,1-2.721-1.312,15.876,15.876,0,0,1-2.578-1.569,14.671,14.671,0,0,1,2.721,1.312A15.122,15.122,0,0,1,128.968,419.261Z" transform="translate(-43.45 -134.409)"/><path class="c" d="M250.883,294.711l-.143.046-.424.115-1.638.418-6.163,1.524-21.308,5.155-.155.034v-.155c-.6-3.935-1.426-8.18-2.222-12.6-.521-2.95-.974-5.843-1.283-8.649s-.447-5.539-.487-8.14a43.961,43.961,0,0,1,.43-7.361,21.192,21.192,0,0,1,1.879-6.146,15.4,15.4,0,0,1,3.162-4.256,12.4,12.4,0,0,1,3.305-2.257,11.05,11.05,0,0,1,2.417-.762l.653-.08a1.085,1.085,0,0,1,.223,0,1.007,1.007,0,0,1-.223.046l-.642.115a11.13,11.13,0,0,0-2.377.8,12.6,12.6,0,0,0-3.242,2.291,15.465,15.465,0,0,0-3.087,4.227,21.252,21.252,0,0,0-1.822,6.089,44.218,44.218,0,0,0-.4,7.326c.046,2.589.195,5.3.5,8.105s.768,5.688,1.289,8.632c.79,4.416,1.61,8.667,2.211,12.6l-.178-.12,21.337-5.069,6.181-1.443,1.65-.372.43-.092A.682.682,0,0,1,250.883,294.711Z" transform="translate(-83.339 -64.011)"/></g></svg>