<svg xmlns="http://www.w3.org/2000/svg" width="206.776" height="199.367" viewBox="0 0 206.776 199.367"><defs><style>.a{fill:#f5f5f5;}.b{fill:#e0e0e0;}.c{fill:#455a64;}.d{fill:#37474f;}.e{fill:#263238;}.f{fill:#f0f0f0;}.g{fill:#fafafa;}.h{opacity:0.1;}.i{fill:#267fc9;}.j,.k,.l,.m,.q{fill:#fff;}.j{opacity:0.7;}.k{opacity:0.6;}.l{opacity:0.5;}.m,.o,.p{opacity:0.3;}.n{opacity:0.2;}.r{fill:#ffa8a7;}.s{fill:#ebebeb;}.t{fill:#f28f8f;}.u{fill:#b16668;}.v{opacity:0.15;}.w{opacity:0.4;}</style></defs><g transform="translate(-5.06 -19.253)"><g transform="translate(5.06 114.033)"><ellipse class="a" cx="103.388" cy="52.293" rx="103.388" ry="52.293"/></g><g transform="translate(19.272 131.975)"><ellipse class="b" cx="30.285" cy="17.487" rx="30.285" ry="17.487" transform="translate(0 30.54)"/><path class="b" d="M291.521,315.3l-49.735-28.631a3.351,3.351,0,0,0-3.039,0l-73.613,42.513a.922.922,0,0,0,0,1.752l49.735,28.631a3.351,3.351,0,0,0,3.039,0l73.613-42.513A.924.924,0,0,0,291.521,315.3Z" transform="translate(-111.413 -286.307)"/></g><g transform="translate(69.793 54.997)"><path class="b" d="M349.581,108.213l29.547,17.07a8.41,8.41,0,0,1,3.8,6.606v58.334l2.507,1.452V131.66a11.973,11.973,0,0,0-5.382-9.324l-30.61-17.682c-2.955-1.688-5.382-.308-5.382,3.111v60.009l2.533,1.46V109.926C346.609,108.04,347.948,107.267,349.581,108.213Z" transform="translate(-265.702 -103.935)"/><path class="c" d="M303.13,410.569a10.657,10.657,0,0,1,4.825-8.349,3.284,3.284,0,0,1,3.533-.253h0l3.25,1.857-6.914,11.755-3.225-1.857h0A3.375,3.375,0,0,1,303.13,410.569Z" transform="translate(-242.049 -275.935)"/><path class="d" d="M315.955,406.825a10.657,10.657,0,0,0-4.825,8.349c0,3.073,2.161,4.322,4.825,2.786a10.662,10.662,0,0,0,4.829-8.353C320.783,406.53,318.618,405.285,315.955,406.825Z" transform="translate(-246.672 -278.595)"/><path class="e" d="M321.957,416.725c0-1.2-.734-1.752-1.634-1.233a3.914,3.914,0,0,0-1.633,3.119c0,1.2.73,1.756,1.633,1.233A3.909,3.909,0,0,0,321.957,416.725Z" transform="translate(-251.041 -283.873)"/><path class="f" d="M299.611,395.57s0,5.487,2.625,7.45c.494.367,1.017.62,1.325.878.671.557.228,1.579-.587,2.018-1.182.633-7.619-1.081-10.346-6.331Z" transform="translate(-235.981 -272.472)"/><path class="g" d="M305.531,399s0,5.487,2.625,7.45c.494.367,1.017.62,1.33.878.667.557.224,1.583-.591,2.018-1.182.633-7.619-1.081-10.346-6.331Z" transform="translate(-239.402 -274.454)"/><path class="e" d="M321.924,419.564a1.021,1.021,0,0,0-.464.8c0,.3.207.422.464.266a1.026,1.026,0,0,0,.46-.8C322.384,419.539,322.178,419.416,321.924,419.564Z" transform="translate(-252.642 -286.302)"/><path class="c" d="M427.17,338.956a10.658,10.658,0,0,1,4.825-8.353,3.282,3.282,0,0,1,3.533-.249h0l3.25,1.857-6.914,11.751-3.225-1.853h0A3.379,3.379,0,0,1,427.17,338.956Z" transform="translate(-313.732 -234.548)"/><path class="d" d="M439.995,335.209a10.658,10.658,0,0,0-4.825,8.353c0,3.077,2.161,4.322,4.825,2.786a10.645,10.645,0,0,0,4.812-8.353C444.806,334.918,442.658,333.673,439.995,335.209Z" transform="translate(-318.355 -237.209)"/><path class="e" d="M446,345.112c0-1.2-.734-1.756-1.633-1.233A3.921,3.921,0,0,0,442.73,347c0,1.2.73,1.752,1.634,1.232A3.9,3.9,0,0,0,446,345.112Z" transform="translate(-322.724 -242.486)"/><path class="f" d="M423.651,324s0,5.487,2.625,7.45c.494.367,1.017.62,1.325.878.671.557.228,1.583-.587,2.018-1.182.633-7.619-1.081-10.346-6.331Z" transform="translate(-307.664 -231.111)"/><path class="g" d="M429.571,327.35s0,5.487,2.625,7.45c.494.367,1.017.62,1.33.882.667.553.224,1.579-.591,2.013-1.182.633-7.619-1.081-10.346-6.331Z" transform="translate(-311.085 -233.048)"/><path class="e" d="M445.964,347.93a1.022,1.022,0,0,0-.464.8c0,.291.207.422.464.266a1.026,1.026,0,0,0,.46-.8A.288.288,0,0,0,445.964,347.93Z" transform="translate(-324.325 -244.911)"/><path class="c" d="M280.705,278.542l-46.43-26.811L158.42,295.522l46.426,26.816Z" transform="translate(-158.42 -189.346)"/><path class="d" d="M344.269,315.25v2.917l-75.859,43.8v-2.917Z" transform="translate(-221.984 -226.055)"/><path class="e" d="M158.42,355.48V358.4l46.426,26.816V382.3Z" transform="translate(-158.42 -249.304)"/></g><g transform="translate(73.292 57.747)"><g transform="translate(31.602 38.132)"><path class="h" d="M322.014,283.569l-39.82,23L241.58,283.151l39.93-22.941Z" transform="translate(-241.58 -235.129)"/><g transform="translate(4.069)"><path class="i" d="M326.231,221.882,289.762,200.79,251.22,223.1l36.469,21.092Z" transform="translate(-251.22 -200.79)"/><path class="j" d="M326.231,221.882,289.762,200.79,251.22,223.1l36.469,21.092Z" transform="translate(-251.22 -200.79)"/><path class="i" d="M337.62,298.558l38.542-22.3V250.76L337.62,273.068Z" transform="translate(-301.151 -229.668)"/><path class="k" d="M337.62,298.558l38.542-22.3V250.76L337.62,273.068Z" transform="translate(-301.151 -229.668)"/><path class="c" d="M346.66,336.984a.659.659,0,0,1-.333-.089,1.009,1.009,0,0,1-.422-.916v-2.7h0v-.2l.139.025,2.11-1.245v3.014a2.436,2.436,0,0,1-1.043,1.971A.921.921,0,0,1,346.66,336.984Zm-.422-3.5v2.5a.7.7,0,0,0,.241.625.49.49,0,0,0,.46-.051,2.144,2.144,0,0,0,.874-1.688v-.22h-.785l-.152-1.059Zm1.085.844h.49v-1.866l-1.266.743.625.114Z" transform="translate(-305.936 -276.536)"/><path class="c" d="M348.369,345.5a.169.169,0,0,1-.169-.169v-2.271a.169.169,0,0,1,.338,0v2.271A.169.169,0,0,1,348.369,345.5Z" transform="translate(-307.265 -282.91)"/><path class="c" d="M346.035,348.395a.165.165,0,0,1-.148-.084.169.169,0,0,1,.059-.232l1.975-1.14a.169.169,0,0,1,.232.063.173.173,0,0,1-.063.232l-1.971,1.14A.224.224,0,0,1,346.035,348.395Z" transform="translate(-305.915 -285.237)"/><path class="c" d="M362.38,335.248a.422.422,0,0,1-.19-.046.456.456,0,0,1-.2-.422v-.443a.173.173,0,0,1,.342,0v.464c0,.072,0,.106.034.114s.051,0,.11-.03a1.009,1.009,0,0,0,.317-.768V331.1a.169.169,0,0,1,.338,0v3.018a1.292,1.292,0,0,1-.481,1.059.519.519,0,0,1-.266.072Z" transform="translate(-315.232 -275.999)"/><path class="c" d="M358.68,328.887v-.3a4.8,4.8,0,0,1,2.17-3.761,1.435,1.435,0,0,1,2.343,1.351v.1Zm3.187-4.027a1.714,1.714,0,0,0-.844.266,4.487,4.487,0,0,0-1.984,3.166l3.8-2.208a1.266,1.266,0,0,0-.523-1.106A.89.89,0,0,0,361.867,324.86Z" transform="translate(-313.322 -272.275)"/><path class="c" d="M377.129,324.577a.169.169,0,0,1-.169-.169V318.63a.173.173,0,0,1,.342,0v5.778a.169.169,0,0,1-.173.169Z" transform="translate(-323.886 -268.806)"/><path class="c" d="M375.956,319.781a.172.172,0,0,1-.068,0,.169.169,0,0,1-.089-.224l.6-1.4.675.781a.169.169,0,0,1-.257.22l-.321-.367-.388.9A.173.173,0,0,1,375.956,319.781Z" transform="translate(-323.207 -268.619)"/><path class="c" d="M380.85,322.383a.169.169,0,0,1-.173-.169v-5.778a.173.173,0,1,1,.342,0v5.778A.169.169,0,0,1,380.85,322.383Z" transform="translate(-326.033 -267.507)"/><path class="c" d="M379.676,317.617a.173.173,0,0,1-.068,0,.169.169,0,0,1-.089-.224l.616-1.393.675.777a.171.171,0,0,1-.257.224l-.321-.371-.388.9A.173.173,0,0,1,379.676,317.617Z" transform="translate(-325.357 -267.37)"/><path class="i" d="M287.689,300.222,251.22,279.135V253.64l36.469,21.092Z" transform="translate(-251.22 -231.332)"/><path class="l" d="M287.689,300.222,251.22,279.135V253.64l36.469,21.092Z" transform="translate(-251.22 -231.332)"/><path class="d" d="M287.49,278.455l2.5,1.439v-3.875l-2.5-1.439Z" transform="translate(-272.181 -243.434)"/><path class="c" d="M289.989,245.481l38.542-22.308-2.5-1.444L287.49,244.038Z" transform="translate(-272.181 -212.891)"/><path class="d" d="M290.17,271.922l2.495,1.444,1.393-.8-2.495-1.444Z" transform="translate(-273.729 -241.434)"/><path class="g" d="M370.867,232.771l-10.211,5.88c-.186.11-.135.308.11.452l11.527,6.656a.9.9,0,0,0,.781.063l10.21-5.884c.186-.106.135-.308-.11-.452l-11.549-6.652A.882.882,0,0,0,370.867,232.771Z" transform="translate(-314.399 -219.239)"/><path class="b" d="M383.8,248.432a.211.211,0,0,0,.106-.393l-9.573-5.525a.211.211,0,0,0-.211.363l9.573,5.525a.182.182,0,0,0,.106.03Z" transform="translate(-322.195 -224.892)"/><path class="b" d="M381.259,249.87a.211.211,0,0,0,.105-.393l-9.569-5.517a.215.215,0,0,0-.291.076.22.22,0,0,0,.08.291l9.569,5.521A.19.19,0,0,0,381.259,249.87Z" transform="translate(-320.718 -225.722)"/><path class="b" d="M378.739,251.3a.211.211,0,0,0,.106-.393l-9.569-5.525a.212.212,0,0,0-.211.367l9.569,5.525a.241.241,0,0,0,.106.025Z" transform="translate(-319.261 -226.543)"/><path class="b" d="M376.194,252.733a.215.215,0,0,0,.186-.106.22.22,0,0,0-.08-.291l-9.569-5.521a.211.211,0,1,0-.211.363l9.569,5.525A.2.2,0,0,0,376.194,252.733Z" transform="translate(-317.781 -227.365)"/><path class="c" d="M405.612,248.905l-.376-.215-4.356,2.516.371.215Z" transform="translate(-337.709 -228.472)"/><path class="c" d="M401.646,246.621,401,246.25l-4.36,2.52.646.367Z" transform="translate(-335.259 -227.062)"/><path class="c" d="M398.432,244.755l-.371-.215-4.36,2.52.371.211Z" transform="translate(-333.56 -226.073)"/><path class="c" d="M395.222,242.9l-.751-.426-4.36,2.516.751.426Z" transform="translate(-331.485 -224.877)"/><path class="c" d="M391.252,240.615l-.371-.215-4.36,2.516.371.215Z" transform="translate(-329.411 -223.681)"/><path class="c" d="M388.1,238.776l-.806-.456-4.36,2.52.806.456Z" transform="translate(-327.336 -222.479)"/><path class="c" d="M384.082,236.465l-.376-.215-4.356,2.52.371.211Z" transform="translate(-325.267 -221.283)"/><path class="c" d="M382.3,235.426l-.186-.106-4.36,2.516.186.11Z" transform="translate(-324.342 -220.745)"/><path class="c" d="M385.916,237.59l-.186-.11L381.37,240l.186.11Z" transform="translate(-326.434 -221.993)"/><path class="c" d="M393.186,241.74l-.186-.11-4.36,2.52.186.106Z" transform="translate(-330.636 -224.392)"/><path class="c" d="M397.136,244.03l-.186-.11-4.36,2.52.186.106Z" transform="translate(-332.918 -225.715)"/><path class="c" d="M399.936,245.7l-.186-.11-4.36,2.52.186.106Z" transform="translate(-334.537 -226.68)"/><path class="c" d="M403.866,247.886l-.186-.106-4.36,2.516.186.106Z" transform="translate(-336.808 -227.946)"/><path class="c" d="M380.492,234.4l-.376-.215L375.76,236.7l.371.215Z" transform="translate(-323.192 -220.086)"/><path class="g" d="M400.88,296.266v6.395c0,.245.173.346.388.224l9.983-5.766a.844.844,0,0,0,.384-.667v-6.4c0-.245-.173-.346-.384-.224l-9.983,5.77A.844.844,0,0,0,400.88,296.266Z" transform="translate(-337.709 -252.216)"/><path class="c" d="M424.451,292.07l-.321.186v5.812l.321-.186Z" transform="translate(-351.146 -253.541)"/><path class="c" d="M421.017,293.87l-.557.325v5.812l.557-.325Z" transform="translate(-349.025 -254.581)"/><path class="c" d="M418.231,295.66l-.321.186v5.812l.321-.186Z" transform="translate(-347.551 -255.616)"/><path class="c" d="M415.446,296.99l-.646.38v5.816l.646-.384Z" transform="translate(-345.754 -256.384)"/><path class="c" d="M412.011,299.25l-.321.186v5.812l.321-.186Z" transform="translate(-343.956 -257.691)"/><path class="c" d="M409.272,300.51l-.692.409v5.812l.692-.409Z" transform="translate(-342.159 -258.419)"/><path class="c" d="M405.8,302.83l-.321.19v5.812l.321-.186Z" transform="translate(-340.368 -259.759)"/><path class="c" d="M404.24,303.84l-.16.093v5.812l.16-.089Z" transform="translate(-339.559 -260.343)"/><path class="c" d="M407.435,302.08l-.165.1v5.812l.165-.093Z" transform="translate(-341.402 -259.326)"/><path class="c" d="M413.7,298.42l-.16.093v5.812l.16-.093Z" transform="translate(-345.026 -257.211)"/><path class="c" d="M417.125,296.45l-.165.093v5.812l.165-.093Z" transform="translate(-347.002 -256.072)"/><path class="c" d="M419.59,295.09l-.16.093V301l.16-.093Z" transform="translate(-348.429 -255.286)"/><path class="c" d="M422.93,293.06l-.16.093v5.812l.16-.093Z" transform="translate(-350.36 -254.113)"/><path class="c" d="M402.691,304.63l-.321.186v5.812l.321-.186Z" transform="translate(-338.57 -260.8)"/></g></g><g transform="translate(34.418 10.156)"><path class="h" d="M323.371,219.833l-35.384,20.451L250.56,218.631l35.38-20.451Z" transform="translate(-249.585 -171.305)"/><path class="i" d="M248.25,154.142l33.945-19.632L320.6,156.733l-33.941,19.632Z" transform="translate(-248.25 -134.51)"/><path class="m" d="M248.25,154.142l33.945-19.632L320.6,156.733l-33.941,19.632Z" transform="translate(-248.25 -134.51)"/><path class="g" d="M269.646,164.467l10.219,5.88c.186.106.135.308-.11.452l-11.527,6.652a.882.882,0,0,1-.781.068l-10.21-5.884c-.186-.11-.135-.308.11-.452l11.544-6.652a.844.844,0,0,1,.756-.063Z" transform="translate(-253.378 -151.787)"/><path class="b" d="M274.289,180.1A.219.219,0,0,1,274.1,180a.211.211,0,0,1,.08-.287l9.569-5.525a.211.211,0,1,1,.211.363l-9.569,5.525A.2.2,0,0,1,274.289,180.1Z" transform="translate(-263.175 -157.415)"/><path class="b" d="M276.8,181.543a.211.211,0,0,1-.106-.393l9.573-5.525a.211.211,0,1,1,.211.363l-9.573,5.525A.181.181,0,0,1,276.8,181.543Z" transform="translate(-264.63 -158.247)"/><path class="b" d="M279.324,183a.211.211,0,0,1-.106-.393l9.556-5.525a.207.207,0,0,1,.287.076.215.215,0,0,1-.076.291l-9.569,5.525A.228.228,0,0,1,279.324,183Z" transform="translate(-266.087 -159.094)"/><path class="b" d="M281.843,184.439a.2.2,0,0,1-.181-.106.211.211,0,0,1,.076-.287l9.569-5.525a.212.212,0,0,1,.211.367l-9.569,5.525a.241.241,0,0,1-.106.025Z" transform="translate(-267.542 -159.928)"/><path class="c" d="M259.66,180.605l.371-.215,4.36,2.516-.376.215Z" transform="translate(-254.844 -161.024)"/><path class="c" d="M263.25,178.317l.642-.367,4.36,2.516-.646.371Z" transform="translate(-256.919 -159.614)"/><path class="c" d="M266.83,176.455l.376-.215,4.356,2.516-.371.215Z" transform="translate(-258.987 -158.626)"/><path class="c" d="M269.52,174.6l.751-.426,4.36,2.516-.751.426Z" transform="translate(-260.542 -157.43)"/><path class="c" d="M274.01,172.311l.371-.211,4.36,2.516-.371.215Z" transform="translate(-263.137 -156.233)"/><path class="c" d="M276.57,170.476l.806-.456,4.36,2.52-.806.452Z" transform="translate(-264.616 -155.031)"/><path class="c" d="M281.19,168.165l.371-.215,4.36,2.516-.376.215Z" transform="translate(-267.286 -153.835)"/><path class="c" d="M283.23,167.126l.186-.106,4.356,2.516-.186.106Z" transform="translate(-268.465 -153.298)"/><path class="c" d="M279.6,169.286l.186-.106,4.36,2.516-.186.11Z" transform="translate(-266.367 -154.546)"/><path class="c" d="M272.33,173.44l.186-.11,4.36,2.516-.186.11Z" transform="translate(-262.166 -156.944)"/><path class="c" d="M268.38,175.73l.186-.11,4.36,2.52-.186.106Z" transform="translate(-259.883 -158.268)"/><path class="c" d="M265.58,177.4l.19-.11,4.356,2.516-.186.11Z" transform="translate(-258.265 -159.233)"/><path class="c" d="M261.65,179.58l.19-.11,4.356,2.52-.186.106Z" transform="translate(-255.994 -160.493)"/><path class="c" d="M284.78,166.1l.371-.215,4.36,2.516-.376.215Z" transform="translate(-269.361 -152.639)"/><path class="i" d="M286.661,228.738,248.25,206.515V181.02l38.411,22.223Z" transform="translate(-248.25 -161.388)"/><path class="i" d="M339.25,232.286l33.941-19.632V187.16L339.25,206.792Z" transform="translate(-300.839 -164.937)"/><path class="h" d="M339.25,232.286l33.941-19.632V187.16L339.25,206.792Z" transform="translate(-300.839 -164.937)"/><path class="d" d="M379.975,211.975l-2.495,1.439v-3.875l2.495-1.439Z" transform="translate(-322.933 -177.038)"/><path class="c" d="M324.891,179.117,286.48,156.894l2.495-1.444,38.411,22.223Z" transform="translate(-270.343 -146.611)"/><path class="c" d="M304.671,259.332a2.11,2.11,0,0,1-.891-1.688V255.06l1.811,1.064h.118v.177h0v2.309a.844.844,0,0,1-.355.781.544.544,0,0,1-.283.076A.844.844,0,0,1,304.671,259.332Zm.2-2.782-.131.908h-.671v.19a1.824,1.824,0,0,0,.747,1.431.4.4,0,0,0,.393.046.6.6,0,0,0,.207-.532v-2.14Zm-.257-.249.536-.093-1.081-.637v1.6h.422Z" transform="translate(-280.341 -204.176)"/><path class="c" d="M305.868,266.769a.144.144,0,0,0,.143-.143v-1.942a.143.143,0,0,0-.143-.144.148.148,0,0,0-.148.144v1.942A.148.148,0,0,0,305.868,266.769Z" transform="translate(-281.462 -209.655)"/><path class="c" d="M305.555,269.269a.144.144,0,0,0,.076-.27l-1.688-.975a.146.146,0,0,0-.143.253l1.688.971A.127.127,0,0,0,305.555,269.269Z" transform="translate(-280.309 -211.657)"/><path class="c" d="M319.121,273.008a.346.346,0,0,0,.16-.038.393.393,0,0,0,.173-.35v-.4a.146.146,0,1,0-.291,0v.4a.143.143,0,0,1-.025.1.135.135,0,0,1-.1-.025.844.844,0,0,1-.27-.654v-2.579a.146.146,0,1,0-.291,0v2.579a1.1,1.1,0,0,0,.422.9A.422.422,0,0,0,319.121,273.008Z" transform="translate(-288.835 -212.412)"/><path class="c" d="M314.485,265.358v-.084a1.233,1.233,0,0,1,2-1.157,4.111,4.111,0,0,1,1.853,3.216v.253Zm.743-1.114a1.081,1.081,0,0,0-.452.95l3.263,1.883a3.828,3.828,0,0,0-1.688-2.706,1.481,1.481,0,0,0-.722-.224A.8.8,0,0,0,315.228,264.244Z" transform="translate(-286.517 -209.245)"/><path class="c" d="M333.658,278.626a.143.143,0,0,0,.143-.144v-4.939a.143.143,0,0,0-.143-.144.148.148,0,0,0-.148.143v4.939A.148.148,0,0,0,333.658,278.626Z" transform="translate(-297.522 -214.775)"/><path class="c" d="M333.52,274.5a.148.148,0,0,0,.135-.2l-.5-1.194-.574.667a.144.144,0,0,0,0,.2.152.152,0,0,0,.207,0l.274-.317.333.768A.144.144,0,0,0,333.52,274.5Z" transform="translate(-296.962 -214.602)"/><path class="c" d="M330.474,276.84a.148.148,0,0,0,.148-.144v-4.939a.146.146,0,1,0-.291,0V276.7A.144.144,0,0,0,330.474,276.84Z" transform="translate(-295.684 -213.741)"/><path class="c" d="M330.32,272.694a.144.144,0,0,0,.059,0,.152.152,0,0,0,.076-.194l-.519-1.19-.574.663a.145.145,0,0,0,.219.19l.274-.317.333.772A.139.139,0,0,0,330.32,272.694Z" transform="translate(-295.104 -213.567)"/><path class="g" d="M261.3,227.089v6.374c0,.245-.173.346-.388.224l-9.966-5.753a.87.87,0,0,1-.384-.671v-6.407c0-.245.173-.346.388-.219l9.978,5.766A.844.844,0,0,1,261.3,227.089Z" transform="translate(-249.585 -184.25)"/><path class="c" d="M252.03,222.88l.321.186v5.812l-.321-.186Z" transform="translate(-250.434 -185.579)"/><path class="c" d="M255.13,224.67l.557.325v5.812l-.557-.325Z" transform="translate(-252.226 -186.614)"/><path class="c" d="M258.24,226.46l.321.186v5.812l-.321-.186Z" transform="translate(-254.023 -187.648)"/><path class="c" d="M260.58,227.79l.646.384v5.812l-.646-.384Z" transform="translate(-255.376 -188.417)"/><path class="c" d="M264.46,230.05l.321.186v5.812l-.321-.186Z" transform="translate(-257.618 -189.723)"/><path class="c" d="M266.7,231.31l.688.409v5.816l-.688-.414Z" transform="translate(-258.912 -190.451)"/><path class="c" d="M270.68,233.64l.321.186v5.812l-.321-.186Z" transform="translate(-261.212 -191.798)"/><path class="c" d="M272.45,234.65l.16.093v5.812l-.16-.093Z" transform="translate(-262.235 -192.381)"/><path class="c" d="M269.26,232.89l.16.093V238.8l-.16-.093Z" transform="translate(-260.392 -191.364)"/><path class="c" d="M263,229.22l.16.093v5.812l-.16-.093Z" transform="translate(-256.774 -189.243)"/><path class="c" d="M259.57,227.25l.16.093v5.812l-.16-.093Z" transform="translate(-254.792 -188.105)"/><path class="c" d="M257.1,225.89l.165.093V231.8l-.165-.093Z" transform="translate(-253.364 -187.319)"/><path class="c" d="M253.76,223.87l.165.093v5.808l-.165-.093Z" transform="translate(-251.434 -186.152)"/><path class="c" d="M273.78,235.43l.325.186v5.812l-.325-.186Z" transform="translate(-263.004 -192.832)"/></g><g transform="translate(32.109)"><path class="h" d="M246.81,157.415,283.6,178.7l28.825-16.643L275.572,140.78Z" transform="translate(-245.109 -127.978)"/><path class="i" d="M242.78,128.267l30.864-17.817,36,20.788-30.864,17.817Z" transform="translate(-242.78 -110.45)"/><path class="h" d="M242.78,128.267l30.864-17.817,36,20.788-30.864,17.817Z" transform="translate(-242.78 -110.45)"/><path class="g" d="M264.169,136.1l10.206,5.88c.186.11.135.308-.11.452l-11.527,6.673a.9.9,0,0,1-.781.063l-10.21-5.9c-.186-.106-.135-.308.11-.452l11.532-6.652A.882.882,0,0,1,264.169,136.1Z" transform="translate(-247.897 -125.239)"/><path class="b" d="M268.824,151.743a.211.211,0,0,1-.106-.393l9.569-5.525a.211.211,0,1,1,.211.363l-9.569,5.525A.2.2,0,0,1,268.824,151.743Z" transform="translate(-257.71 -130.87)"/><path class="b" d="M271.344,153.2a.211.211,0,0,1-.106-.393l9.569-5.525a.211.211,0,0,1,.287.076.215.215,0,0,1-.076.291l-9.569,5.521A.2.2,0,0,1,271.344,153.2Z" transform="translate(-259.167 -131.719)"/><path class="b" d="M273.854,154.639a.211.211,0,0,1-.106-.393l9.569-5.525a.212.212,0,0,1,.211.367l-9.569,5.525A.228.228,0,0,1,273.854,154.639Z" transform="translate(-260.617 -132.551)"/><path class="b" d="M276.373,156.072a.211.211,0,0,1-.182-.106.215.215,0,0,1,.076-.291l9.569-5.521a.211.211,0,1,1,.211.363l-9.569,5.525A.2.2,0,0,1,276.373,156.072Z" transform="translate(-262.072 -133.372)"/><path class="c" d="M254.19,152.245l.371-.215,4.36,2.516-.376.215Z" transform="translate(-249.374 -134.479)"/><path class="c" d="M257.77,149.961l.65-.371,4.356,2.52-.646.367Z" transform="translate(-251.443 -133.069)"/><path class="c" d="M261.36,148.1l.376-.215,4.356,2.52-.371.211Z" transform="translate(-253.517 -132.081)"/><path class="c" d="M264.05,146.236l.751-.426,4.36,2.516-.751.426Z" transform="translate(-255.072 -130.885)"/><path class="c" d="M268.54,143.955l.371-.215,4.36,2.516-.371.215Z" transform="translate(-257.667 -129.688)"/><path class="c" d="M271.1,142.116l.806-.456,4.36,2.52-.806.456Z" transform="translate(-259.146 -128.486)"/><path class="c" d="M275.72,139.805l.371-.215,4.36,2.52-.371.211Z" transform="translate(-261.816 -127.29)"/><path class="c" d="M277.75,138.766l.19-.106,4.356,2.516-.186.11Z" transform="translate(-262.989 -126.753)"/><path class="c" d="M274.13,140.93l.186-.11,4.36,2.516-.186.11Z" transform="translate(-260.897 -128.001)"/><path class="c" d="M266.86,145.08l.19-.11,4.356,2.52-.186.106Z" transform="translate(-256.696 -130.399)"/><path class="c" d="M262.91,147.37l.19-.11,4.356,2.52-.186.106Z" transform="translate(-254.413 -131.723)"/><path class="c" d="M260.12,149.04l.186-.11,4.356,2.52-.186.106Z" transform="translate(-252.801 -132.688)"/><path class="c" d="M256.19,151.226l.186-.106,4.356,2.516-.186.106Z" transform="translate(-250.53 -133.953)"/><path class="c" d="M279.31,137.735l.371-.215,4.36,2.516-.376.215Z" transform="translate(-263.891 -126.094)"/><path class="i" d="M278.785,185.33l-36-20.788V152.66l36,20.788Z" transform="translate(-242.78 -134.843)"/><g class="n" transform="translate(0 17.817)"><path d="M278.785,185.33l-36-20.788V152.66l36,20.788Z" transform="translate(-242.78 -152.66)"/></g><path class="i" d="M328.08,189.4l30.864-17.821V159.7L328.08,177.517Z" transform="translate(-292.075 -138.912)"/><path class="o" d="M328.08,189.4l30.864-17.821V159.7L328.08,177.517Z" transform="translate(-292.075 -138.912)"/><path class="d" d="M368.809,180.215l-2.5,1.439v-3.871l2.5-1.444Z" transform="translate(-314.169 -148.528)"/><path class="c" d="M317.015,149.322l-36-20.788,2.495-1.444,36.009,20.788Z" transform="translate(-264.873 -120.066)"/><path class="c" d="M293.511,195.317a2.085,2.085,0,0,1-.891-1.688V191.05l1.811,1.064.118-.021v.169h0v2.309a.869.869,0,0,1-.355.785.553.553,0,0,1-.283.072A.794.794,0,0,1,293.511,195.317Zm.2-2.777-.135.9h-.667v.19a1.832,1.832,0,0,0,.747,1.435.4.4,0,0,0,.388.042.587.587,0,0,0,.211-.532v-2.136Zm-.257-.249.536-.1-1.081-.633v1.579h.422Z" transform="translate(-271.583 -157.029)"/><path class="c" d="M294.7,202.749a.148.148,0,0,0,.148-.143v-1.937a.146.146,0,1,0-.291,0v1.937A.143.143,0,0,0,294.7,202.749Z" transform="translate(-272.704 -162.502)"/><path class="c" d="M294.387,205.268a.139.139,0,0,0,.127-.076.148.148,0,0,0-.055-.2l-1.688-.971a.143.143,0,0,0-.2.055.139.139,0,0,0,.051.194l1.688.975A.144.144,0,0,0,294.387,205.268Z" transform="translate(-271.543 -164.515)"/><path class="c" d="M307.991,209a.333.333,0,0,0,.156-.042.38.38,0,0,0,.177-.35v-.4a.148.148,0,0,0-.148-.144.144.144,0,0,0-.143.144v.4c0,.059,0,.093-.03.1s-.042,0-.093-.025a.844.844,0,0,1-.27-.654v-2.579a.144.144,0,0,0-.143-.144.148.148,0,0,0-.148.144v2.579a1.106,1.106,0,0,0,.422.908.473.473,0,0,0,.219.068Z" transform="translate(-280.094 -165.264)"/><path class="c" d="M303.323,201.345v-.084a1.228,1.228,0,0,1,2-1.157,4.107,4.107,0,0,1,1.857,3.216v.253Zm.739-1.114a1.081,1.081,0,0,0-.464.929l3.263,1.883a3.8,3.8,0,0,0-1.688-2.7,1.461,1.461,0,0,0-.726-.228A.777.777,0,0,0,304.062,200.23Z" transform="translate(-277.757 -162.094)"/><path class="c" d="M322.494,214.61a.148.148,0,0,0,.148-.144v-4.943a.148.148,0,0,0-.148-.144.144.144,0,0,0-.144.144v4.943A.144.144,0,0,0,322.494,214.61Z" transform="translate(-288.764 -167.622)"/><path class="c" d="M322.325,210.5a.131.131,0,0,0,.055,0,.139.139,0,0,0,.076-.19l-.515-1.19-.578.663a.148.148,0,0,0,0,.207.144.144,0,0,0,.2,0l.274-.317.333.772A.152.152,0,0,0,322.325,210.5Z" transform="translate(-288.169 -167.472)"/><path class="c" d="M319.314,212.84a.148.148,0,0,0,.148-.148v-4.939a.148.148,0,0,0-.148-.144.144.144,0,0,0-.144.144v4.939a.148.148,0,0,0,.143.148Z" transform="translate(-286.926 -166.599)"/><path class="c" d="M319.147,208.684a.131.131,0,0,0,.055,0,.139.139,0,0,0,.076-.19l-.515-1.195-.578.667a.148.148,0,0,0,0,.2.139.139,0,0,0,.2,0l.274-.317.333.768a.152.152,0,0,0,.152.063Z" transform="translate(-286.334 -166.42)"/><path class="g" d="M255.839,166.456v6.395c0,.245-.173.346-.384.224l-9.987-5.766a.844.844,0,0,1-.388-.667v-6.4c0-.245.173-.346.388-.224l9.978,5.766A.844.844,0,0,1,255.839,166.456Z" transform="translate(-244.109 -139.066)"/><path class="c" d="M246.56,162.26l.321.186v5.812l-.321-.186Z" transform="translate(-244.964 -140.391)"/><path class="c" d="M249.66,164.06l.557.325V170.2l-.557-.329Z" transform="translate(-246.756 -141.431)"/><path class="c" d="M252.77,165.85l.325.186v5.812l-.325-.186Z" transform="translate(-248.553 -142.466)"/><path class="c" d="M255.12,167.18l.642.38v5.812l-.642-.38Z" transform="translate(-249.911 -143.235)"/><path class="c" d="M258.99,169.44l.321.186v5.812l-.321-.186Z" transform="translate(-252.148 -144.541)"/><path class="c" d="M261.23,170.7l.688.409v5.812l-.688-.409Z" transform="translate(-253.442 -145.269)"/><path class="c" d="M265.21,173.02l.321.19v5.812l-.321-.19Z" transform="translate(-255.742 -146.61)"/><path class="c" d="M266.98,174.03l.16.093v5.812l-.16-.093Z" transform="translate(-256.765 -147.193)"/><path class="c" d="M263.79,172.27l.16.1v5.808l-.16-.093Z" transform="translate(-254.922 -146.176)"/><path class="c" d="M257.53,168.61l.16.093v5.812l-.16-.093Z" transform="translate(-251.304 -144.061)"/><path class="c" d="M254.1,166.64l.16.093v5.812l-.16-.093Z" transform="translate(-249.322 -142.922)"/><path class="c" d="M251.64,165.28l.16.093v5.812l-.16-.093Z" transform="translate(-247.9 -142.137)"/><path class="c" d="M248.3,163.25l.16.093v5.812l-.16-.093Z" transform="translate(-245.97 -140.963)"/><path class="c" d="M268.31,174.82l.325.186v5.812l-.325-.186Z" transform="translate(-257.534 -147.65)"/></g><g transform="translate(0 36.14)"><path class="h" d="M216.019,328.1l-28.2,16.263-21.109-12.2,28.268-16.225Z" transform="translate(-166.71 -265.343)"/><g transform="translate(2.575)"><path class="i" d="M172.81,210.915l25.718-14.845,18.863,10.886-25.718,14.849Z" transform="translate(-172.81 -196.07)"/><path class="h" d="M172.81,210.915l25.718-14.845,18.863,10.886-25.718,14.849Z" transform="translate(-172.81 -196.07)"/><path class="g" d="M222.224,201.056l-7.893,4.546c-.143.084-.106.241.084.35l8.915,5.145a.684.684,0,0,0,.6.051l7.9-4.55c.144-.084.106-.236-.084-.35l-8.915-5.141A.692.692,0,0,0,222.224,201.056Z" transform="translate(-196.755 -198.925)"/><path class="b" d="M232.245,213.159a.156.156,0,0,0,.139-.08.165.165,0,0,0-.059-.224l-7.4-4.272a.169.169,0,0,0-.224.063.165.165,0,0,0,.059.22l7.4,4.272A.148.148,0,0,0,232.245,213.159Z" transform="translate(-202.787 -203.29)"/><path class="b" d="M230.3,214.274a.165.165,0,0,0,.139-.08.16.16,0,0,0-.059-.224l-7.4-4.272a.156.156,0,0,0-.219.059.16.16,0,0,0,.059.224l7.4,4.272A.173.173,0,0,0,230.3,214.274Z" transform="translate(-201.662 -203.932)"/><path class="b" d="M228.349,215.388a.165.165,0,0,0,.084-.3l-7.4-4.272a.169.169,0,0,0-.224.059.165.165,0,0,0,.059.224l7.4,4.272A.144.144,0,0,0,228.349,215.388Z" transform="translate(-200.537 -204.578)"/><path class="b" d="M226.407,216.527a.165.165,0,0,0,.139-.08.16.16,0,0,0-.059-.224l-7.4-4.255a.156.156,0,0,0-.219.059.16.16,0,0,0,.059.224l7.4,4.272A.207.207,0,0,0,226.407,216.527Z" transform="translate(-199.414 -205.244)"/><path class="c" d="M249.125,213.535l-.287-.165-3.368,1.946.287.165Z" transform="translate(-214.801 -206.068)"/><path class="c" d="M246.061,211.773l-.5-.283-3.368,1.946.5.283Z" transform="translate(-212.905 -204.981)"/><path class="c" d="M243.575,210.329l-.287-.169-3.368,1.946.287.169Z" transform="translate(-211.593 -204.213)"/><path class="c" d="M241.091,208.889l-.578-.329-3.373,1.946.583.329Z" transform="translate(-209.987 -203.288)"/><path class="c" d="M238.025,207.125l-.287-.165-3.368,1.946.287.165Z" transform="translate(-208.386 -202.363)"/><path class="c" d="M235.583,205.71l-.62-.35-3.373,1.946.625.35Z" transform="translate(-206.779 -201.439)"/><path class="c" d="M232.475,203.919l-.287-.169L228.82,205.7l.287.169Z" transform="translate(-205.178 -200.508)"/><path class="c" d="M231.1,203.114l-.144-.084-3.368,1.946.144.084Z" transform="translate(-204.468 -200.092)"/><path class="c" d="M233.9,204.784l-.144-.084-3.373,1.946.148.084Z" transform="translate(-206.08 -201.057)"/><path class="c" d="M239.516,207.994l-.143-.084L236,209.856l.148.084Z" transform="translate(-209.328 -202.912)"/><path class="c" d="M242.572,209.77l-.144-.08-3.368,1.942.144.084Z" transform="translate(-211.096 -203.941)"/><path class="c" d="M244.736,211.054l-.143-.084-3.373,1.95.144.08Z" transform="translate(-212.344 -204.681)"/><path class="c" d="M247.776,212.744l-.144-.084-3.373,1.946.144.084Z" transform="translate(-214.101 -205.657)"/><path class="c" d="M229.7,202.315l-.287-.165L226.04,204.1l.287.169Z" transform="translate(-203.572 -199.584)"/><path class="i" d="M191.673,293.613l-18.863-10.89V231.24l18.863,10.89Z" transform="translate(-172.81 -216.395)"/><g class="n" transform="translate(0 14.845)"><path d="M191.673,293.613l-18.863-10.89V231.24l18.863,10.89Z" transform="translate(-172.81 -231.24)"/></g><path class="i" d="M217.5,288.192l25.718-14.849V221.86L217.5,236.709Z" transform="translate(-198.637 -210.974)"/><path class="o" d="M217.5,288.192l25.718-14.849V221.86L217.5,236.709Z" transform="translate(-198.637 -210.974)"/><path class="d" d="M246.575,242.155l-2.495,1.439v-3.875l2.495-1.439Z" transform="translate(-213.997 -220.463)"/><path class="c" d="M218.259,224.809,199.4,213.924l2.495-1.444,18.859,10.89Z" transform="translate(-188.176 -205.553)"/><path class="c" d="M182.921,344.272a2.11,2.11,0,0,1-.891-1.688V340l1.811,1.064h.118v.173h0v2.309a.844.844,0,0,1-.355.781.545.545,0,0,1-.283.076A.844.844,0,0,1,182.921,344.272Zm.2-2.782-.131.908h-.671v.19a1.824,1.824,0,0,0,.747,1.431.4.4,0,0,0,.393.046.6.6,0,0,0,.207-.532v-2.14Zm-.257-.249.536-.093-1.081-.637v1.6h.422Z" transform="translate(-178.138 -279.248)"/><path class="c" d="M184.118,351.709a.144.144,0,0,0,.144-.144v-1.942a.144.144,0,0,0-.144-.144.148.148,0,0,0-.148.144v1.942A.148.148,0,0,0,184.118,351.709Z" transform="translate(-179.259 -284.726)"/><path class="c" d="M183.8,354.179a.144.144,0,0,0,.072-.27l-1.688-.975a.146.146,0,1,0-.144.253l1.688.971A.11.11,0,0,0,183.8,354.179Z" transform="translate(-178.101 -286.712)"/><path class="c" d="M197.4,357.943a.346.346,0,0,0,.16-.038.392.392,0,0,0,.173-.35v-.4a.148.148,0,1,0-.291,0v.4a.144.144,0,0,1-.025.1.135.135,0,0,1-.1-.025.844.844,0,0,1-.27-.654V354.4a.146.146,0,1,0-.291,0v2.579a1.1,1.1,0,0,0,.422.9.422.422,0,0,0,.219.063Z" transform="translate(-186.65 -287.483)"/><path class="c" d="M192.735,350.3v-.084a1.233,1.233,0,0,1,2-1.157,4.111,4.111,0,0,1,1.853,3.216v.253Zm.743-1.114a1.08,1.08,0,0,0-.452.95l3.263,1.883a3.828,3.828,0,0,0-1.688-2.706,1.494,1.494,0,0,0-.722-.224.8.8,0,0,0-.4.1Z" transform="translate(-184.314 -284.316)"/><path class="c" d="M211.9,363.566a.148.148,0,0,0,.148-.143v-4.939a.148.148,0,0,0-.148-.144.144.144,0,0,0-.144.144v4.939A.144.144,0,0,0,211.9,363.566Z" transform="translate(-195.319 -289.847)"/><path class="c" d="M211.741,359.414a.148.148,0,0,0,.059,0,.143.143,0,0,0,.072-.19L211.357,358l-.574.667a.143.143,0,0,0,0,.2.152.152,0,0,0,.207,0l.27-.317.333.768a.152.152,0,0,0,.148.093Z" transform="translate(-194.73 -289.65)"/><path class="c" d="M208.724,361.75a.148.148,0,0,0,.148-.143v-4.939a.146.146,0,1,0-.291,0v4.939A.144.144,0,0,0,208.724,361.75Z" transform="translate(-193.482 -288.795)"/><path class="c" d="M208.558,357.623a.143.143,0,0,0,.059,0,.152.152,0,0,0,.076-.194l-.528-1.2-.574.663a.145.145,0,0,0,.219.19l.27-.317.333.772A.148.148,0,0,0,208.558,357.623Z" transform="translate(-192.89 -288.627)"/><path class="g" d="M198.7,324.495v6.391c0,.249-.173.346-.384.224l-9.983-5.762a.844.844,0,0,1-.388-.671v-6.395c0-.249.169-.346.384-.224l9.983,5.766A.844.844,0,0,1,198.7,324.495Z" transform="translate(-181.559 -266.537)"/><path class="c" d="M189.42,320.3l.321.186V326.3l-.321-.186Z" transform="translate(-182.409 -267.863)"/><path class="c" d="M192.53,322.09l.553.329v5.812l-.553-.329Z" transform="translate(-184.206 -268.898)"/><path class="c" d="M195.64,323.89l.321.186v5.812l-.321-.186Z" transform="translate(-186.004 -269.938)"/><path class="c" d="M197.98,325.21l.646.384v5.812l-.646-.38Z" transform="translate(-187.356 -270.701)"/><path class="c" d="M201.85,327.47l.325.19v5.812l-.325-.186Z" transform="translate(-189.592 -272.007)"/><path class="c" d="M204.09,328.74l.688.409v5.812l-.688-.409Z" transform="translate(-190.887 -272.741)"/><path class="c" d="M208.07,331.06l.321.186v5.812l-.321-.186Z" transform="translate(-193.187 -274.081)"/><path class="c" d="M209.84,332.07l.16.093v5.812l-.16-.093Z" transform="translate(-194.21 -274.665)"/><path class="c" d="M206.65,330.31l.16.093v5.812l-.16-.093Z" transform="translate(-192.366 -273.648)"/><path class="c" d="M200.39,326.64l.16.1v5.808l-.16-.089Z" transform="translate(-188.749 -271.527)"/><path class="c" d="M196.96,324.68l.16.093v5.812l-.16-.093Z" transform="translate(-186.766 -270.394)"/><path class="c" d="M194.5,323.32l.16.093v5.812l-.16-.093Z" transform="translate(-185.345 -269.608)"/><path class="c" d="M191.16,321.29l.16.093V327.2l-.16-.093Z" transform="translate(-183.415 -268.435)"/><path class="c" d="M211.18,332.86l.321.186v5.812l-.321-.186Z" transform="translate(-194.984 -275.122)"/></g></g><g transform="translate(22.519 75.973)"><path class="h" d="M269.914,359.251l-28.2,16.263L220.06,363.045l28.263-16.225Z" transform="translate(-220.06 -323.022)"/><g transform="translate(3.271 0)"><path class="i" d="M227.81,305.289l25.722-14.849,18.859,10.89-25.718,14.849Z" transform="translate(-227.81 -290.44)"/><g class="p"><path class="q" d="M227.81,305.289l25.722-14.849,18.859,10.89-25.718,14.849Z" transform="translate(-227.81 -290.44)"/></g><path class="g" d="M277.224,295.432l-7.893,4.546c-.143.084-.105.241.084.35l8.915,5.145a.675.675,0,0,0,.6.046l7.893-4.546c.144-.084.106-.241-.084-.35l-8.915-5.141A.663.663,0,0,0,277.224,295.432Z" transform="translate(-251.755 -293.296)"/><path class="b" d="M287.275,307.557a.165.165,0,0,0,.139-.08.16.16,0,0,0-.059-.224l-7.4-4.267a.165.165,0,0,0-.16.283l7.4,4.272A.206.206,0,0,0,287.275,307.557Z" transform="translate(-257.817 -297.684)"/><path class="b" d="M285.3,308.672a.165.165,0,0,0,.144-.084.169.169,0,0,0-.063-.224l-7.4-4.293a.165.165,0,0,0-.224.063.16.16,0,0,0,.059.219l7.4,4.272A.148.148,0,0,0,285.3,308.672Z" transform="translate(-256.664 -298.306)"/><path class="b" d="M283.355,309.766a.165.165,0,0,0,.08-.3l-7.4-4.272a.165.165,0,0,0-.224.059.169.169,0,0,0,.059.224l7.4,4.267A.193.193,0,0,0,283.355,309.766Z" transform="translate(-255.539 -298.951)"/><path class="b" d="M281.409,310.886a.165.165,0,0,0,.08-.308l-7.4-4.267a.161.161,0,0,0-.16.279l7.4,4.272A.139.139,0,0,0,281.409,310.886Z" transform="translate(-254.416 -299.599)"/><path class="c" d="M304.125,307.909l-.287-.169-3.368,1.95.287.165Z" transform="translate(-269.801 -300.438)"/><path class="c" d="M301.061,306.147l-.5-.287-3.373,1.946.5.287Z" transform="translate(-267.905 -299.351)"/><path class="c" d="M298.575,304.7l-.287-.165-3.368,1.946.287.165Z" transform="translate(-266.593 -298.588)"/><path class="c" d="M296.1,303.269l-.582-.329-3.373,1.946.582.329Z" transform="translate(-264.987 -297.664)"/><path class="c" d="M293.03,301.5l-.291-.169-3.368,1.946.287.169Z" transform="translate(-263.386 -296.733)"/><path class="c" d="M290.589,300.08l-.62-.35-3.368,1.946.62.355Z" transform="translate(-261.785 -295.809)"/><path class="c" d="M287.48,298.295l-.287-.165-3.373,1.946.287.165Z" transform="translate(-260.178 -294.884)"/><path class="c" d="M286.1,297.494l-.144-.084-3.368,1.946.144.08Z" transform="translate(-259.468 -294.468)"/><path class="c" d="M288.9,299.164l-.144-.084-3.368,1.946.144.084Z" transform="translate(-261.086 -295.433)"/><path class="c" d="M294.522,302.374l-.143-.084-3.368,1.946.143.084Z" transform="translate(-264.334 -297.288)"/><path class="c" d="M297.576,304.144l-.144-.084-3.373,1.946.143.084Z" transform="translate(-266.096 -298.311)"/><path class="c" d="M299.742,305.434l-.143-.084L296.23,307.3l.139.084Z" transform="translate(-267.35 -299.057)"/><path class="c" d="M302.776,307.124l-.143-.084-3.373,1.946.143.084Z" transform="translate(-269.101 -300.033)"/><path class="c" d="M284.705,296.695l-.287-.165-3.368,1.946.287.165Z" transform="translate(-258.578 -293.959)"/><path class="i" d="M246.673,361.561l-18.863-10.89V325.62l18.863,10.89Z" transform="translate(-227.81 -310.771)"/><path class="i" d="M246.673,361.561l-18.863-10.89V325.62l18.863,10.89Z" transform="translate(-227.81 -310.771)"/><path class="i" d="M272.5,356.141l25.718-14.849V316.24L272.5,331.089Z" transform="translate(-253.637 -305.35)"/><path class="h" d="M272.5,356.141l25.718-14.849V316.24L272.5,331.089Z" transform="translate(-253.637 -305.35)"/><path class="d" d="M301.575,336.531l-2.495,1.444V334.1l2.495-1.439Z" transform="translate(-268.997 -314.839)"/><path class="c" d="M273.259,319.189,254.4,308.3l2.495-1.439,18.859,10.89Z" transform="translate(-243.176 -299.929)"/><path class="c" d="M327.214,365.916a.423.423,0,0,1-.186-.046.574.574,0,0,1-.232-.519v-1.52h0v-.11h.076l1.195-.7v1.688a1.376,1.376,0,0,1-.587,1.11A.557.557,0,0,1,327.214,365.916Zm-.228-1.971v1.406a.388.388,0,0,0,.139.35.257.257,0,0,0,.257-.03,1.2,1.2,0,0,0,.49-.941V364.6h-.422l-.089-.6Zm.612.469h.274v-1.051l-.709.422.35.063Z" transform="translate(-285.013 -332.384)"/><path class="c" d="M328.17,370.729a.093.093,0,0,1-.093-.093V369.37a.1.1,0,1,1,.19,0v1.266a.093.093,0,0,1-.1.093Z" transform="translate(-285.754 -335.986)"/><path class="c" d="M326.867,372.371a.1.1,0,0,1-.051-.177l1.11-.642a.1.1,0,0,1,.131.034.093.093,0,0,1-.034.131l-1.11.642a.1.1,0,0,1-.046.013Z" transform="translate(-284.999 -337.308)"/><path class="c" d="M318.8,374.9a.228.228,0,0,1-.106-.025.257.257,0,0,1-.114-.232v-.245a.1.1,0,0,1,.1-.1.1.1,0,0,1,.1.1v.325a.268.268,0,0,0,.063,0,.566.566,0,0,0,.177-.422V372.61a.1.1,0,1,1,.19,0V374.3a.73.73,0,0,1-.27.6A.266.266,0,0,1,318.8,374.9Z" transform="translate(-280.266 -337.858)"/><path class="c" d="M316.72,371.293v-.165a2.7,2.7,0,0,1,1.22-2.11.81.81,0,0,1,1.321.76v.055Zm1.807-2.267a.984.984,0,0,0-.477.148,2.533,2.533,0,0,0-1.119,1.781l2.148-1.241a.7.7,0,0,0-.3-.62A.477.477,0,0,0,318.527,369.026Z" transform="translate(-279.192 -335.74)"/><path class="c" d="M309.87,378.527a.093.093,0,0,1-.093-.093V375.18a.1.1,0,1,1,.19,0v3.254a.093.093,0,0,1-.1.093Z" transform="translate(-275.178 -339.344)"/><path class="c" d="M309.2,375.842h-.038a.106.106,0,0,1-.051-.127l.342-.785.38.422a.1.1,0,0,1-.144.127l-.181-.207-.219.507A.1.1,0,0,1,309.2,375.842Z" transform="translate(-274.792 -339.267)"/><path class="c" d="M311.957,377.359a.1.1,0,0,1-.1-.1v-3.254a.1.1,0,0,1,.1-.1.1.1,0,0,1,.1.1v3.254A.1.1,0,0,1,311.957,377.359Z" transform="translate(-276.383 -338.678)"/><path class="c" d="M311.3,374.652h-.038a.093.093,0,0,1-.051-.127l.342-.785.376.422a.093.093,0,0,1,0,.135.1.1,0,0,1-.135,0l-.177-.211-.224.507A.089.089,0,0,1,311.3,374.652Z" transform="translate(-276.001 -338.579)"/><path class="g" d="M277.3,377.358v6.395c0,.245.173.346.384.224l9.983-5.762a.844.844,0,0,0,.388-.671v-6.4c0-.245-.173-.346-.388-.22l-9.983,5.766A.844.844,0,0,0,277.3,377.358Z" transform="translate(-256.41 -336.921)"/><path class="c" d="M300.871,373.17l-.321.186v5.812l.321-.186Z" transform="translate(-269.847 -338.25)"/><path class="c" d="M297.443,374.96l-.553.325V381.1l.553-.325Z" transform="translate(-267.732 -339.285)"/><path class="c" d="M294.655,376.75l-.325.186v5.812l.325-.186Z" transform="translate(-266.252 -340.319)"/><path class="c" d="M291.866,378.08l-.646.384v5.812l.646-.384Z" transform="translate(-264.455 -341.088)"/><path class="c" d="M288.441,380.34l-.321.186v5.812l.321-.186Z" transform="translate(-262.663 -342.394)"/><path class="c" d="M285.7,381.6l-.688.409v5.816l.688-.414Z" transform="translate(-260.866 -343.122)"/><path class="c" d="M282.221,383.93l-.321.186v5.812l.321-.186Z" transform="translate(-259.069 -344.468)"/><path class="c" d="M280.67,384.94l-.16.093v5.812l.16-.093Z" transform="translate(-258.266 -345.052)"/><path class="c" d="M283.86,383.18l-.16.093v5.812l.16-.093Z" transform="translate(-260.109 -344.035)"/><path class="c" d="M290.12,379.51l-.16.093v5.812l.16-.093Z" transform="translate(-263.727 -341.914)"/><path class="c" d="M293.55,377.54l-.16.093v5.812l.16-.093Z" transform="translate(-265.709 -340.776)"/><path class="c" d="M296.01,376.18l-.16.093v5.812l.16-.093Z" transform="translate(-267.131 -339.99)"/><path class="c" d="M299.35,374.15l-.16.1v5.812l.16-.093Z" transform="translate(-269.061 -338.816)"/><path class="c" d="M279.111,385.72l-.321.186v5.812l.321-.186Z" transform="translate(-257.272 -345.503)"/></g></g></g><g transform="translate(27.119 22.314)"><g transform="translate(0 0)"><g transform="translate(0.994 65.549)"><path class="r" d="M124.222,328.269c.139-2.241,1.342-24.819,1.342-24.819l-10.974,7.741c1.916,12.9,2.338,16.8,2.419,18.948h0a1.827,1.827,0,0,0-.051.553c.059,2.558,3.124,3.9,5.525,5.567a44.746,44.746,0,0,0,6.479,3.883c1.739.8,5.234.823,5.648-.236a66.552,66.552,0,0,1-8.64-6.648A5.611,5.611,0,0,1,124.222,328.269Z" transform="translate(-91.411 -252.102)"/><path class="e" d="M141.095,388.715a2.111,2.111,0,0,1-.393,2.216,10.273,10.273,0,0,1-7.209,1.667,13.123,13.123,0,0,1-7.032-2.533c-1.46-1.11-3.5-2.71-5.137-3.026a10.114,10.114,0,0,1-3.66-1.359c-.49-.439-.464-2.41-.464-2.41Z" transform="translate(-92.919 -298.23)"/><path class="d" d="M118.453,365.2a.57.57,0,0,0-.536.469c-.1.549-.19,2.132-.422,3.026a15.2,15.2,0,0,0-.266,4.8c.215,1,2.693,1.688,4.28,2.22a20.341,20.341,0,0,1,5.154,2.988,15.329,15.329,0,0,0,7.636,2.575c3.575,0,5.876-.954,6.568-2.186.844-1.524.148-2.389-4-4.141-.785-.333-3.546-1.832-4.491-2.376-2.533-1.469-5.065-3.533-6.293-6.184a1.49,1.49,0,0,0-.6-.81,1.363,1.363,0,0,0-.806-.042,7.071,7.071,0,0,0-1.967.6c-.549.258-1.325.557-1.3,1.228a2.169,2.169,0,0,0,.169.684c.051.135.093.317-.03.4s-.279,0-.388-.1a10.946,10.946,0,0,1-1.131-1.266,3.848,3.848,0,0,0-.663-.62,7.921,7.921,0,0,1-.713-.422C118.415,365.808,118.47,365.538,118.453,365.2Z" transform="translate(-92.881 -287.788)"/><path class="g" d="M156.017,389c-5.171.422-6.754,3.478-6.927,5.361a12.636,12.636,0,0,0,3.689.68c3.575,0,6.023-.954,6.716-2.186C160.3,391.406,159.714,390.266,156.017,389Z" transform="translate(-111.349 -301.542)"/><path class="f" d="M146.761,386.326a.287.287,0,0,1-.16-.051.236.236,0,0,1-.042-.338,6.243,6.243,0,0,1,4.643-1.823.245.245,0,0,1,.228.262.249.249,0,0,1-.274.219,5.77,5.77,0,0,0-4.221,1.642A.241.241,0,0,1,146.761,386.326Z" transform="translate(-109.855 -298.716)"/><path class="f" d="M141.425,383.475a.27.27,0,0,1-.16-.051.228.228,0,0,1-.042-.338,6.2,6.2,0,0,1,4.643-1.823.245.245,0,0,1,.228.262.253.253,0,0,1-.274.219,5.732,5.732,0,0,0-4.221,1.642A.27.27,0,0,1,141.425,383.475Z" transform="translate(-106.77 -297.068)"/><path class="f" d="M136.468,380.205a.279.279,0,0,1-.16-.051.232.232,0,0,1-.042-.338,6.218,6.218,0,0,1,4.643-1.823.241.241,0,1,1-.046.477,5.774,5.774,0,0,0-4.221,1.642A.257.257,0,0,1,136.468,380.205Z" transform="translate(-103.906 -295.179)"/><path class="f" d="M131.647,376.907a.236.236,0,0,1-.156-.046.232.232,0,0,1-.051-.338,6.341,6.341,0,0,1,5.065-1.853.245.245,0,0,1,.228.262.249.249,0,0,1-.274.215,5.96,5.96,0,0,0-4.643,1.667A.249.249,0,0,1,131.647,376.907Z" transform="translate(-101.119 -293.248)"/><path class="r" d="M77.821,315.823,66.382,313.35c-.3,7.078-.118,16.66-.359,23.3-.046,1.266-.7,9.708-.333,12.3.54,3.9,5.77,3.647,6.2,1.351s.81-12.11.9-13.127c.241-4.259,2.672-11.4,4.373-18.994C77.247,317.816,77.741,316.186,77.821,315.823Z" transform="translate(-63.088 -257.823)"/><path class="e" d="M70.327,402.336a9.5,9.5,0,0,1-1.228,5.158,4.023,4.023,0,0,1-4.314,1.52c-1.781-.325-4.044-1.266-4.643-3.221a10.933,10.933,0,0,1-.249-5.4Z" transform="translate(-59.676 -308.124)"/><path class="d" d="M62.859,366.63c-.718.08-.789,3.132-1.064,6.2-.3,3.288-1.338,4.681-1.612,7.374-.312,3.081-.068,4.445,1.233,6.251s5.694,3.461,7.695.73c1.629-2.224,1.591-4.643,1.3-7.678a67.328,67.328,0,0,1-.519-7.779c.034-2.3.422-4.436-.207-4.668-.03.338-.059.768-.093,1.1-.03.257-.042,1.5-.422,1.528a4.221,4.221,0,0,1-.051-.865.937.937,0,0,0-.228-.73,2.781,2.781,0,0,0-1.131-.376c-.713-.1-1.431-.182-2.153-.211H64.526a3.292,3.292,0,0,0-.908.148.608.608,0,0,0-.371.325.844.844,0,0,0,0,.355,2.259,2.259,0,0,1-.063.629c0,.093-.089.207-.19.186a.166.166,0,0,1-.127-.177v-1.072a5.933,5.933,0,0,0,0-.671A3.454,3.454,0,0,1,62.859,366.63Z" transform="translate(-59.899 -288.614)"/><path class="g" d="M60.064,401.536a6.8,6.8,0,0,0,1.165,4.618c1.3,1.807,6.04,3.457,8.02.726a7.8,7.8,0,0,0,1.266-4.529C69.181,400.358,61.988,399.725,60.064,401.536Z" transform="translate(-59.898 -308.168)"/><path class="f" d="M71.078,395.714a.337.337,0,0,1-.089-.021,11.844,11.844,0,0,0-6.226-.333.27.27,0,0,1-.325-.165.228.228,0,0,1,.186-.287,12.165,12.165,0,0,1,6.576.355.224.224,0,0,1,.139.308.279.279,0,0,1-.262.144Z" transform="translate(-62.423 -304.786)"/><path class="f" d="M65.048,389.8a.262.262,0,0,1-.232-.152.224.224,0,0,1,.152-.3,10.248,10.248,0,0,1,6.564.3.224.224,0,0,1,.127.312.283.283,0,0,1-.355.11,9.946,9.946,0,0,0-6.146-.287.317.317,0,0,1-.11.017Z" transform="translate(-62.636 -301.495)"/><path class="f" d="M65.249,384.543a.274.274,0,0,1-.232-.144.232.232,0,0,1,.148-.308,9.252,9.252,0,0,1,6.694.279.219.219,0,0,1,.106.321.287.287,0,0,1-.363.093,8.8,8.8,0,0,0-6.234-.257.233.233,0,0,1-.118.017Z" transform="translate(-62.753 -298.418)"/><path class="s" d="M65.507,378.824a.266.266,0,0,1-.232-.139.228.228,0,0,1,.144-.308,9.69,9.69,0,0,1,6.754.342.22.22,0,0,1,.11.317.287.287,0,0,1-.359.1,9.325,9.325,0,0,0-6.289-.329A.232.232,0,0,1,65.507,378.824Z" transform="translate(-62.901 -295.126)"/><path class="c" d="M71.376,181.8c-.27,12.882-2.571,41.5-2.571,41.5-.194,1.583-2.486,8.311-2.571,14.035-.131,8.978-.325,15.778-.325,15.778s5.019,1.988,8.7.612c0,0,4.791-19.087,6.137-25.043,1.6-7.1,5.593-20.286,5.593-20.286l-.291,18.749a51.532,51.532,0,0,0-.148,11.337c.422,3.8,1.959,14.313,1.959,14.313a20.6,20.6,0,0,0,8.619-.253s2.41-22.616,2.609-26.094c.228-3.968,1.452-43.873,1.452-43.873Z" transform="translate(-63.279 -181.8)"/><path class="d" d="M113.835,224.348l1.794-11.954a12.755,12.755,0,0,0,7.378-2.984s-.376,2.807-5.85,4.5l-2.072,10.08-1.6,18.762Z" transform="translate(-90.77 -197.756)"/></g><path class="r" d="M132.733,85.757c2.326-.122,6.656-.27,9.771,3.562,2.186,2.693,8.151,9.172,11.532,13.452,2.267-2.36,7.758-8.075,8.661-9.746a26.4,26.4,0,0,0,2.051-4.917,17.458,17.458,0,0,0,.722-3.069,16.729,16.729,0,0,0,.063-3.845c-.025-1.161,1.688-.566,2.364,1.266a10.071,10.071,0,0,1,.5,3.157c.642-.3,2.5-1.22,2.79-1.351,1.013-.473,4.221-1.6,4.533.211.072.422-.059.844.118,1.22a2.709,2.709,0,0,0,.355.473,2.068,2.068,0,0,1,.249,2.11,1.646,1.646,0,0,0-.173.962,2.63,2.63,0,0,1,.042,1.043,4.141,4.141,0,0,1-.422.747,3.2,3.2,0,0,0-.279,1.068,4.1,4.1,0,0,1-.245,1.081c-.355.8-1.325.988-2.072,1.266a35.476,35.476,0,0,0-3.347,1.3c-1.79,1.182-6.623,9.919-11.515,15.516-1.688,1.921-3.178,3.119-4.77,2.912h0c-1.287-.03-2.879-1.195-4.411-2.533-4.875-4.221-12.705-12.486-12.705-12.486C133.282,95.2,132.383,88.416,132.733,85.757Z" transform="translate(-100.861 -57.766)"/><path class="c" d="M138,91.28a10.413,10.413,0,0,1,4.576,1.313c1.731.979,2.351,1.811,4.356,4.052s6.8,8.066,6.8,8.066a12.9,12.9,0,0,1-8.353,6.644l-6.99-6.779Z" transform="translate(-103.946 -63.939)"/><path class="t" d="M217.326,92.93c-1,.35-1.266,1.026-1.173,2.469.042.844-.16,2.448-1.072,3.115a2.212,2.212,0,0,0,1.2-.566c.422-.469.544-.523.794-.27a1.612,1.612,0,0,0,.658.346,1.118,1.118,0,0,0-.063,1.33c.473.73,2.482.68,4.1-.224,0,0-2.642.916-3.288.089s.734-1.937,1.777-2.258c0,0-2.558.7-2.98-.139s.625-1.507,2.11-1.942c0,0-2.11.456-2.507-.257A1.347,1.347,0,0,1,217.326,92.93Z" transform="translate(-148.491 -64.892)"/><path class="i" d="M77.09,91.145a11.391,11.391,0,0,0-3.111,4.533c-.312,1.157-.6,2.11.384,8.547a91.465,91.465,0,0,1,1.144,12.747l.241,12.832c3.672,4.3,21.472,6.635,30.041.844,0,0,.051-22.211-.557-29.547-.422-4.972-1.933-9.641-3.647-11.169-2.326-.422-4.567-.675-4.567-.675l-8.569-.5Z" transform="translate(-66.778 -62.483)"/><g transform="translate(13.593)"><path class="d" d="M110.52,37.359c1.144-2.617.025-6.091-1.338-7.72-1.971-2.355-5.04-3.377-9.666-3.086-3.516.219-6.977,1.688-7.636,5.289-2.828.844-2.5,5.487-1.8,7.534,1.427,4.153,4.221,7.771,4.28,9.9Z" transform="translate(-89.564 -26.505)"/><path class="r" d="M110.479,54.313c-.557,2-1.718,3.478-3.575,3.769a15.671,15.671,0,0,1-2.929,0l.076,2.558c2.495,2.136,1.579,4.943-.084,7.471-2.072-2.3-4.44-3.119-6.509-4.031a6.635,6.635,0,0,1-3.014-2.921l-.266-8.628a2.227,2.227,0,0,1-3.005.072,4.082,4.082,0,0,1-1.266-5,2.024,2.024,0,0,1,3.377-.553c.6.6,1.237,1.714,1.714,1.558a1.735,1.735,0,0,0,1.152-1.173,10.553,10.553,0,0,0,.6-3.8,5.1,5.1,0,0,0,1.414-1.106,4.685,4.685,0,0,0,1.266-2.9c4.01-1.266,8.623-.663,10.291.629.958,1.688.992,5.614,1.152,7.876A18.525,18.525,0,0,1,110.479,54.313Z" transform="translate(-89.524 -33.683)"/><path class="t" d="M111.653,76.527c-2.051-.114-6.179-1.072-7.277-2.22a8.5,8.5,0,0,1-1.566-3.487s.165,2.955,1.013,4.263,3,1.878,4.3,2.2a32.194,32.194,0,0,0,3.567.544Z" transform="translate(-97.202 -52.115)"/><path class="c" d="M106.849,93.849c-1.072-.658-3.44-3.347-4.643-2.11s-1.811,1.6-2.587,1.363-2.5-1.929-3.622-3.17A7.2,7.2,0,0,1,94.52,86.91a20.562,20.562,0,0,0,1.583-2.2c.532-.945.422-1.211,1.1-1.266l.059,1.785a6.565,6.565,0,0,0,2.364,2.292C101.569,88.834,105.465,90.814,106.849,93.849Z" transform="translate(-92.411 -59.408)"/><path class="c" d="M123.73,95.565c.642-.582,1.688-3.305,1.959-3.225.422.118,1.144,2,1.5,1.558.561-.692.388-3.85-.544-5s-2.174-2.372-2.874-2.49l.051,1.688a6.8,6.8,0,0,1,.692,2.718C124.5,91.766,123.865,94.649,123.73,95.565Z" transform="translate(-109.292 -61.124)"/><path class="e" d="M118.378,56.464a.844.844,0,1,1-.844-.844A.844.844,0,0,1,118.378,56.464Z" transform="translate(-105.223 -43.331)"/><path class="e" d="M115.431,50.688l-1.663,1.123a1.059,1.059,0,0,1,.283-1.444.992.992,0,0,1,1.38.321Z" transform="translate(-103.436 -40.205)"/><path class="e" d="M134.475,51.15l-1.845-.882a.983.983,0,0,1,1.334-.5,1.068,1.068,0,0,1,.511,1.384Z" transform="translate(-114.435 -39.891)"/><path class="e" d="M133.228,56.344a.844.844,0,1,1-.844-.844A.844.844,0,0,1,133.228,56.344Z" transform="translate(-113.805 -43.261)"/><path class="t" d="M125.2,53.4l.6,5.964L129,58.4Z" transform="translate(-110.141 -42.048)"/><path class="u" d="M120.629,70.82l3.432.76A1.726,1.726,0,0,1,122,72.973,1.836,1.836,0,0,1,120.629,70.82Z" transform="translate(-107.478 -52.115)"/><path class="t" d="M122.04,73.822a1.267,1.267,0,0,0,.215.025,1.6,1.6,0,0,0-1.6-1.558A1.815,1.815,0,0,0,122.04,73.822Z" transform="translate(-107.517 -52.964)"/></g><path class="e" d="M147.506,139.52l-22.434,4.39-8.282,26.959,21.371-4.74Z" transform="translate(-91.688 -91.817)"/><path class="v" d="M132.023,187.6a5.166,5.166,0,0,1-3.634,3.744,11.333,11.333,0,0,1-6.019-.355l.692-2.254Z" transform="translate(-94.913 -119.603)"/><path class="v" d="M160.549,146.195l.236-.844c.131-.456-1.161-.561-2.887-.228l-3.3.633c-1.726.329-3.233.971-3.377,1.427l-.236.844Z" transform="translate(-111.447 -94.942)"/><path class="i" d="M161.723,138.737c.084-.283-.422-.4-1.161-.245l-1.309.274s.5-1.8-2.4-1.346A4.48,4.48,0,0,0,153.2,139.9l-1.4.3c-.772.169-1.49.532-1.6.815l-.2.515,11.557-2.262S161.643,139.024,161.723,138.737Z" transform="translate(-110.886 -90.562)"/><path class="o" d="M161.723,138.737c.084-.283-.422-.4-1.161-.245l-1.309.274s.5-1.8-2.4-1.346A4.48,4.48,0,0,0,153.2,139.9l-1.4.3c-.772.169-1.49.532-1.6.815l-.2.515,11.557-2.262S161.643,139.024,161.723,138.737Z" transform="translate(-110.886 -90.562)"/><path class="i" d="M151.618,145.465c.11-.38,1.169-.886,2.533-1.233a.422.422,0,0,1,.038-.135c.1-.422-.055-.654-.87-.494l-.046-.325,8.02-1.5-.35.329c-1.059.181-1.5.3-1.688,1l-.046.16c1.266-.144,2.11,0,2,.363l-.236.844-9.556,1.832Z" transform="translate(-111.701 -93.123)"/><path class="w" d="M151.618,145.465c.11-.38,1.169-.886,2.533-1.233a.422.422,0,0,1,.038-.135c.1-.422-.055-.654-.87-.494l-.046-.325,8.02-1.5-.35.329c-1.059.181-1.5.3-1.688,1l-.046.16c1.266-.144,2.11,0,2,.363l-.236.844-9.556,1.832Z" transform="translate(-111.701 -93.123)"/><path class="r" d="M87.239,129.491a25.431,25.431,0,0,0,8.341.983c.7,0,1.224.106,1.431.768.072.236.169.561-.73.844a1.266,1.266,0,0,0-.7.363c-.207.329-.106.658-.16,1.043a2.917,2.917,0,0,1-.844,1.456,6.834,6.834,0,0,1-1.41,1.317,9.98,9.98,0,0,1-6.4.908,21.493,21.493,0,0,1-3.947-1.165c-1.211-.447-8.569-2.617-9.442-2.921-6.5-2.267-15.428-5.065-15.955-8.125s1.127-12.663,2.309-20.489c.954-6.331,3.516-8.569,7.665-9.434,4.55,5.166,1.688,14.119,1.688,14.119L67.43,121.088c.7.582,11.329,6.547,13.165,7.142a5.153,5.153,0,0,0,2.575-.274,11.265,11.265,0,0,1,4.711-.477" transform="translate(-57.321 -66.112)"/><path class="c" d="M67.99,94.41c-4.411.6-7.019,2.862-7.914,7.133-.747,3.588-2.136,15.174-2.136,15.174,2.929,2.583,7.737,2.444,10.341,1.541l1.342-9.286C70.708,106.571,72.405,99.467,67.99,94.41Z" transform="translate(-57.679 -65.748)"/><path class="c" d="M71.138,183.412l-2.224,1.233a1.081,1.081,0,0,0-.507.844c-.055,1.992-.215,8.843.1,12.6a1.211,1.211,0,0,0,.54.844,42.138,42.138,0,0,0,6.277,3.031,1.95,1.95,0,0,0,1.072-.118l1.587-.633a.9.9,0,0,0,.515-.772,88.3,88.3,0,0,1,1.363-12.7.806.806,0,0,0-.422-.8l-7.29-3.55a1.224,1.224,0,0,0-1.013.025Z" transform="translate(-63.676 -117.111)"/><path class="d" d="M68.549,200.552c-.317-3.752-.156-10.6-.1-12.6a.329.329,0,0,1,.519-.312l6.8,3.377a.886.886,0,0,1,.46.81,106.953,106.953,0,0,0-.333,12.114.422.422,0,0,1-.511.469,41.311,41.311,0,0,1-6.277-3.031,1.211,1.211,0,0,1-.557-.832Z" transform="translate(-63.699 -119.592)"/><path class="e" d="M85.16,207.419a2,2,0,0,0,.988-.131l1.587-.637a.92.92,0,0,0,.511-.768c.312-4.09.7-8.362,1.368-12.7a.7.7,0,0,0-.08-.422l-3.681,1.688a.781.781,0,0,1,.08.4,105,105,0,0,0-.333,12.118.422.422,0,0,1-.439.456Z" transform="translate(-73.409 -122.585)"/><path class="e" d="M71.509,191.82l4.993,2.414-.262,4.069-4.871-2.144S71.4,193.542,71.509,191.82Z" transform="translate(-65.44 -122.041)"/><path class="i" d="M76.643,198.164,72,196.134s.03-2.309.122-4.014l4.732,2.288Z" transform="translate(-65.804 -122.215)"/><path class="w" d="M76.643,198.164,72,196.134s.03-2.309.122-4.014l4.732,2.288Z" transform="translate(-65.804 -122.215)"/><path class="e" d="M80.675,188.193l-1.241.6L74.96,186.6l1.207-.608Z" transform="translate(-67.515 -118.672)"/><path class="i" d="M80.75,188.53l-1.055.507-4.284-2.1,1.021-.515Z" transform="translate(-67.775 -118.921)"/><path class="w" d="M80.75,188.53l-1.055.507-4.284-2.1,1.021-.515Z" transform="translate(-67.775 -118.921)"/><path class="w" d="M84.909,190.588l-1.064.5-.135-.063,1.059-.5Z" transform="translate(-72.571 -121.29)"/><path class="w" d="M82.637,189.478l-1.051.507-.156-.076,1.064-.5Z" transform="translate(-71.254 -120.649)"/><path class="w" d="M80.4,188.388l-1.059.5-.135-.063,1.055-.5Z" transform="translate(-69.971 -120.019)"/><path class="w" d="M78.355,187.382l-1.059.5-.135-.068,1.055-.5Z" transform="translate(-68.786 -119.435)"/><path class="e" d="M81.42,209.387l-.038.5a.19.19,0,0,1-.279.173l-.9-.367a.422.422,0,0,1-.241-.388l.03-.515a.186.186,0,0,1,.274-.169l.916.38A.422.422,0,0,1,81.42,209.387Z" transform="translate(-70.404 -131.737)"/><path class="e" d="M81.44,213.295l-.03.5a.19.19,0,0,1-.274.177l-.908-.359a.422.422,0,0,1-.249-.38l.008-.507a.186.186,0,0,1,.27-.177l.924.367A.422.422,0,0,1,81.44,213.295Z" transform="translate(-70.416 -134.011)"/><path class="e" d="M81.46,217.171v.5a.19.19,0,0,1-.274.182l-.933-.35a.422.422,0,0,1-.253-.38v-.515a.186.186,0,0,1,.27-.177l.924.35A.422.422,0,0,1,81.46,217.171Z" transform="translate(-70.427 -136.253)"/><path class="e" d="M81.491,221.078v.5a.19.19,0,0,1-.27.186l-.92-.329a.422.422,0,0,1-.262-.371v-.515a.186.186,0,0,1,.266-.186l.933.338A.422.422,0,0,1,81.491,221.078Z" transform="translate(-70.449 -138.527)"/><path class="e" d="M76.648,207.2l-.03.523a.182.182,0,0,1-.27.173l-.9-.371a.422.422,0,0,1-.249-.388l.025-.536a.177.177,0,0,1,.266-.169l.912.38A.422.422,0,0,1,76.648,207.2Z" transform="translate(-67.653 -130.469)"/><path class="e" d="M76.633,211.052l-.025.519a.186.186,0,0,1-.27.177l-.9-.367a.422.422,0,0,1-.249-.388v-.536a.182.182,0,0,1,.27-.169l.912.376A.422.422,0,0,1,76.633,211.052Z" transform="translate(-67.647 -132.701)"/><path class="e" d="M76.642,214.931v.523a.181.181,0,0,1-.27.173l-.9-.363a.422.422,0,0,1-.249-.384v-.536a.182.182,0,0,1,.266-.173l.916.376A.422.422,0,0,1,76.642,214.931Z" transform="translate(-67.664 -134.946)"/><path class="e" d="M76.626,218.752v.523a.186.186,0,0,1-.27.177l-.9-.359a.422.422,0,0,1-.253-.384v-.536a.182.182,0,0,1,.266-.173l.916.367A.422.422,0,0,1,76.626,218.752Z" transform="translate(-67.653 -137.159)"/><path class="e" d="M71.9,205.013v.544a.177.177,0,0,1-.266.169l-.891-.371a.422.422,0,0,1-.253-.388v-.557a.177.177,0,0,1,.262-.169l.908.38A.422.422,0,0,1,71.9,205.013Z" transform="translate(-64.931 -129.207)"/><path class="e" d="M71.919,208.749v.544a.177.177,0,0,1-.266.169l-.891-.371a.422.422,0,0,1-.253-.388v-.557a.177.177,0,0,1,.266-.169l.9.38a.447.447,0,0,1,.241.393Z" transform="translate(-64.942 -131.365)"/><path class="e" d="M71.928,212.484v.544a.182.182,0,0,1-.27.173l-.891-.371a.422.422,0,0,1-.249-.388v-.557a.173.173,0,0,1,.262-.169l.9.38A.443.443,0,0,1,71.928,212.484Z" transform="translate(-64.947 -133.525)"/><path class="e" d="M71.939,216.225v.545a.177.177,0,0,1-.266.173l-.891-.371a.422.422,0,0,1-.253-.388v-.557a.177.177,0,0,1,.266-.169l.9.38a.422.422,0,0,1,.241.388Z" transform="translate(-64.953 -135.687)"/></g></g><g transform="translate(110.951 19.253)"><path class="i" d="M280.851,89.08l-5.221,3.026,2.072,4.643a.481.481,0,0,0,.2.219l1.794,1.038a.481.481,0,0,0,.7-.279l2.25-7.627Z" transform="translate(-267.315 -59.606)"/><path class="v" d="M280.851,89.08l-5.221,3.026,2.072,4.643a.481.481,0,0,0,.2.219l1.794,1.038a.481.481,0,0,0,.7-.279l2.25-7.627Z" transform="translate(-267.315 -59.606)"/><path class="i" d="M279.92,94.533l2.072,4.643a.477.477,0,0,0,.895-.059l2.25-7.627Z" transform="translate(-269.794 -60.999)"/><path class="i" d="M276.051,19.366l-19.67,11.367a1,1,0,0,0-.452.781V55.945a.992.992,0,0,0,.452.768L258,57.62a1.009,1.009,0,0,0,.908,0l19.682-11.367a.988.988,0,0,0,.452-.781V21.046a.992.992,0,0,0-.452-.777l-1.621-.908a1.013,1.013,0,0,0-.92,0Z" transform="translate(-255.93 -19.253)"/><path class="l" d="M279.2,20.972c-.034-.228-.219-.308-.447-.177L259.093,32.158a.916.916,0,0,0-.321.338L256.24,31.06a.912.912,0,0,1,.312-.321L276.23,19.372a1,1,0,0,1,.9,0l1.621.908a.988.988,0,0,1,.447.692Z" transform="translate(-256.109 -19.26)"/><path class="i" d="M261.88,59.38V34.953a.988.988,0,0,1,.473-.785l19.682-11.363c.253-.144.452-.03.452.257V47.494a.988.988,0,0,1-.452.781L262.353,59.641C262.078,59.785,261.88,59.667,261.88,59.38Z" transform="translate(-259.369 -21.27)"/><path class="v" d="M258.914,73.781a1.038,1.038,0,0,1-.908,0l-1.625-.912a.984.984,0,0,1-.452-.777V47.67a.9.9,0,0,1,.144-.46l2.533,1.435a.891.891,0,0,0-.135.447V73.519C258.441,73.781,258.627,73.933,258.914,73.781Z" transform="translate(-255.93 -35.41)"/><g transform="translate(4.39 8.046)"><path class="g" d="M266.558,58.45a.224.224,0,0,1-.228-.224V53.972a.22.22,0,0,1,.114-.194l3.685-2.11a.215.215,0,0,1,.224,0,.22.22,0,0,1,.114.194V56.1a.224.224,0,0,1-.11.194l-3.685,2.11A.228.228,0,0,1,266.558,58.45Zm.228-4.348v3.731l3.229-1.866V52.237Z" transform="translate(-266.33 -46.014)"/><path class="c" d="M271.887,49.561a.447.447,0,0,0-.587.236l-1.688,4.018-.422-.393a.448.448,0,1,0-.625.642l.874.844a.452.452,0,0,0,.312.127h.089a.447.447,0,0,0,.321-.266l1.963-4.622a.422.422,0,0,0-.236-.587Z" transform="translate(-267.543 -44.794)"/><path class="c" d="M282.2,43.826l9.4-5.424c.325-.19.591-.055.591.3a1.266,1.266,0,0,1-.591.983l-9.4,5.424c-.325.186-.587.051-.587-.3a1.266,1.266,0,0,1,.587-.979Z" transform="translate(-275.16 -38.316)"/><path class="g" d="M266.558,73.568a.211.211,0,0,1-.114-.03.232.232,0,0,1-.114-.2V69.09a.224.224,0,0,1,.114-.2l3.685-2.11a.226.226,0,0,1,.338.2v4.234a.224.224,0,0,1-.114.2l-3.681,2.11A.228.228,0,0,1,266.558,73.568Zm.224-4.348v3.727l3.233-1.87V67.355Z" transform="translate(-266.33 -54.749)"/><path class="c" d="M271.885,64.674a.452.452,0,0,0-.587.241l-1.688,4.018-.422-.393a.447.447,0,0,0-.633,0,.456.456,0,0,0,0,.633l.874.844a.422.422,0,0,0,.312.127.317.317,0,0,0,.089,0,.422.422,0,0,0,.321-.262l1.942-4.643a.447.447,0,0,0-.207-.566Z" transform="translate(-267.542 -53.529)"/><path class="c" d="M282.2,58.9l9.4-5.424c.325-.19.591-.055.591.3a1.266,1.266,0,0,1-.591.979l-9.4,5.428c-.325.186-.587.051-.587-.3A1.266,1.266,0,0,1,282.2,58.9Z" transform="translate(-275.16 -47.025)"/><path class="g" d="M266.558,88.676a.211.211,0,0,1-.114-.034.219.219,0,0,1-.114-.194V84.2a.22.22,0,0,1,.114-.194l3.685-2.11a.215.215,0,0,1,.224,0,.22.22,0,0,1,.114.194v4.238a.22.22,0,0,1-.114.194l-3.681,2.11A.236.236,0,0,1,266.558,88.676Zm.224-4.352v3.731l3.233-1.866V82.467Z" transform="translate(-266.33 -63.484)"/><path class="c" d="M271.886,79.791a.447.447,0,0,0-.587.236l-1.688,4.018-.422-.393a.448.448,0,0,0-.625.642l.874.844a.452.452,0,0,0,.312.127h.089A.447.447,0,0,0,270.16,85l1.942-4.643a.422.422,0,0,0-.215-.566Z" transform="translate(-267.543 -62.264)"/><path class="c" d="M282.2,73.964l9.4-5.428c.325-.186.591-.051.591.3a1.266,1.266,0,0,1-.591.979l-9.4,5.424c-.325.19-.587.055-.587-.3A1.266,1.266,0,0,1,282.2,73.964Z" transform="translate(-275.16 -55.732)"/></g></g></g></svg>