<svg xmlns="http://www.w3.org/2000/svg" width="146.204" height="177.9" viewBox="0 0 146.204 177.9"><defs><style>.a{fill:#263238;}.b{fill:#ffbe9d;}.c{fill:#eb996e;}.d{fill:#267fc9;}.e{opacity:0.3;}.f{fill:#fafafa;}.g{fill:#455a64;}</style></defs><path class="a" d="M263.381,110.325c-6.556-1.425-13.581.776-18.83,4.958s-8.853,10.145-11.146,16.446-3.349,12.984-4.248,19.632q-2.231,16.543-3.186,33.228a9.2,9.2,0,0,0,.4,4.125,6.249,6.249,0,0,0,4.667,3.375,18.464,18.464,0,0,0,5.969-.143" transform="translate(-180.285 -109.162)"/><path class="a" d="M307.293,116.129c5.106-.408,11.289,1.532,14.194,5.718,2.262,3.268,1.746,8.981,2.553,12.877,1.261,6.239,2.522,12.519,2.7,18.891.194,6.995-.929,13.954-2.042,20.862l-3.737,22.9c-.546,3.4-1.118,6.862-2.721,9.91s-4.427,5.657-7.853,6.061a10.083,10.083,0,0,1-8.379-3.533,19.157,19.157,0,0,1-4.039-8.435" transform="translate(-215.548 -112.188)"/><path class="a" d="M343.464,198.317c-.168-.082.082-.975.648-2.553s1.455-3.763,2.446-6.515a61.234,61.234,0,0,0,2.737-9.772,32.514,32.514,0,0,0,0-12.136,108.931,108.931,0,0,0-3.36-12.06,59.162,59.162,0,0,1-2.415-10.242,24.508,24.508,0,0,1,.046-7.148c.3-1.67.689-2.553.853-2.5.414.071-.255,3.7.955,9.354a77.089,77.089,0,0,0,2.89,9.788,86.842,86.842,0,0,1,3.651,12.336c.214,1.144.363,2.292.465,3.431.041.572.087,1.133.087,1.7s.041,1.123,0,1.675a33.543,33.543,0,0,1-.771,6.29,49.614,49.614,0,0,1-3.4,10.007,63.419,63.419,0,0,1-3.252,6.255C344.189,197.658,343.648,198.4,343.464,198.317Z" transform="translate(-237.724 -121.639)"/><path class="b" d="M257.347,137.775a21.472,21.472,0,0,1,23.6-19.964,22.119,22.119,0,0,1,19.831,22.726c-.311,10.033-.853,20.117-1.567,23.686-2.144,10.758-9.349,13.76-12.187,14.541a15.317,15.317,0,0,1-3.023.169h0a.071.071,0,0,0-.077.071l.138,12.831c-.4,8.317-6.357,14.694-14.807,14.342s-13.786-7.786-13.556-16.134Z" transform="translate(-194.858 -112.993)"/><path class="a" d="M331.6,173.418a1.751,1.751,0,0,1-1.777,1.69,1.705,1.705,0,0,1-1.772-1.649,1.751,1.751,0,0,1,1.777-1.69,1.7,1.7,0,0,1,1.772,1.649Z" transform="translate(-230.269 -139.445)"/><path class="a" d="M331.28,165.32c-.23.214-1.532-.817-3.446-.894s-3.344.807-3.543.572c-.1-.107.143-.511.771-.919a4.891,4.891,0,0,1,2.844-.735,4.769,4.769,0,0,1,2.732.991C331.2,164.8,331.382,165.207,331.28,165.32Z" transform="translate(-228.419 -135.319)"/><path class="a" d="M296.653,172.548a1.746,1.746,0,0,1-1.772,1.69,1.7,1.7,0,0,1-1.772-1.649,1.756,1.756,0,0,1,1.772-1.69,1.7,1.7,0,0,1,1.772,1.649Z" transform="translate(-213.169 -139.019)"/><path class="a" d="M294.5,164.47c-.23.22-1.532-.812-3.446-.888s-3.339.807-3.538.567c-.1-.1.138-.511.766-.914a4.9,4.9,0,0,1,2.844-.74,4.743,4.743,0,0,1,2.732,1C294.428,163.954,294.617,164.373,294.5,164.47Z" transform="translate(-210.423 -134.903)"/><path class="a" d="M313.478,179.164a13.045,13.045,0,0,1,3.12-.419c.511-.031.955-.107,1.047-.429a2.421,2.421,0,0,0-.271-1.435q-.628-1.762-1.307-3.707c-1.813-5.274-3.109-9.6-2.89-9.675s1.859,4.156,3.671,9.43c.434,1.3.853,2.553,1.246,3.727a2.709,2.709,0,0,1,.184,1.889,1.21,1.21,0,0,1-.827.669,3.3,3.3,0,0,1-.827.077A12.4,12.4,0,0,1,313.478,179.164Z" transform="translate(-222.978 -135.398)"/><path class="c" d="M295.275,232.29s-7.388.286-16.4-5.54c0,0,2.553,9.7,16.446,9Z" transform="translate(-206.2 -166.355)"/><path class="c" d="M306.4,201.665a3.492,3.492,0,0,0-3.038-1.384,3.171,3.171,0,0,0-2.211,1.052,1.935,1.935,0,0,0-.23,2.231,2.329,2.329,0,0,0,2.476.725,7.148,7.148,0,0,0,2.492-1.327,2.088,2.088,0,0,0,.567-.511.618.618,0,0,0,0-.7" transform="translate(-216.868 -153.396)"/><path class="a" d="M302.35,196.269c.311,0,.24,2.042,1.961,3.549s3.937,1.389,3.942,1.675c0,.128-.511.373-1.44.357a5.229,5.229,0,0,1-3.293-1.276,4.422,4.422,0,0,1-1.532-2.972C301.957,196.744,302.207,196.249,302.35,196.269Z" transform="translate(-217.513 -151.437)"/><path class="a" d="M294.755,158.493c-.2.511-2.1.184-4.35.352s-4.085.7-4.36.23c-.128-.225.2-.694.955-1.154a7.3,7.3,0,0,1,3.263-.975,7.383,7.383,0,0,1,3.375.511C294.449,157.839,294.847,158.258,294.755,158.493Z" transform="translate(-209.698 -132.178)"/><path class="a" d="M330.666,157.642c-.347.414-1.649-.082-3.227-.168s-2.931.163-3.222-.3c-.128-.22.1-.638.7-1.021a4.514,4.514,0,0,1,2.65-.592,4.565,4.565,0,0,1,2.553.965C330.655,156.994,330.824,157.443,330.666,157.642Z" transform="translate(-228.376 -131.507)"/><path class="b" d="M262.761,246.3s24.9,9.624,27.918,11.35a15.062,15.062,0,0,1,4,2.946l-17.5,16.573H243.558L217.84,259.638l4.483-11.406L236.66,245" transform="translate(-176.33 -175.287)"/><path class="c" d="M200.21,429.935a10.723,10.723,0,0,1-.654-3.227,10.921,10.921,0,0,1,.082-3.288c.077,0,0,1.47.184,3.268S200.287,429.92,200.21,429.935Z" transform="translate(-167.339 -262.61)"/><path class="d" d="M362.858,275.54l-4.6,3.033-1.113,81.136,21.9-12.4S368.189,277.225,362.858,275.54Z" transform="translate(-244.512 -190.234)"/><path class="d" d="M182.533,251.37s-16.849,1.123-20.755,7.01-16.543,61.984-16.543,61.984-6.724,10.043-7.271,12.509c-.74,3.324-1.424,9.966-1.424,9.966l4.192,6.127,1.659,1.675s-1.1-18.815,18.529-13.326l5.616-.511,5.616-33.744,2.783,27.469L167.92,356l81.258-.046,2.216-89.923s-10.6,5.576-21.745,4.131C223.1,269.317,192.07,261.188,182.533,251.37Z" transform="translate(-136.54 -178.404)"/><path class="a" d="M170.332,403.839c-.026,0-.179-.393-.511-1.093a14.654,14.654,0,0,0-1.756-2.767,14.9,14.9,0,0,0-3.574-3.232A13.786,13.786,0,0,0,153.11,395a14.96,14.96,0,0,0-4.4,2.007,14.54,14.54,0,0,0-2.5,2.109,10.7,10.7,0,0,1-.822.888,1.788,1.788,0,0,1,.179-.255,7.689,7.689,0,0,1,.567-.7,13.242,13.242,0,0,1,2.471-2.19,14.7,14.7,0,0,1,4.437-2.088,13.827,13.827,0,0,1,11.549,1.777,14.741,14.741,0,0,1,3.6,3.329,13.46,13.46,0,0,1,1.7,2.834,7.359,7.359,0,0,1,.327.837A1.1,1.1,0,0,1,170.332,403.839Z" transform="translate(-140.871 -248.312)"/><path class="a" d="M181.12,394.861a6.435,6.435,0,0,1-.179-.837,19.979,19.979,0,0,0-.613-2.241,16.941,16.941,0,0,0-10.365-10.559,18.29,18.29,0,0,0-2.231-.654,5.95,5.95,0,0,1-.832-.2.653.653,0,0,1,.22,0,3.924,3.924,0,0,1,.633.087,15.493,15.493,0,0,1,2.262.587A16.456,16.456,0,0,1,180.5,391.726a15.286,15.286,0,0,1,.511,2.282c.046.271.056.511.071.633S181.13,394.861,181.12,394.861Z" transform="translate(-151.399 -241.536)"/><path class="a" d="M193.732,329.637a1.148,1.148,0,0,1-.158-.23l-.408-.684c-.352-.6-.848-1.47-1.45-2.553-1.2-2.165-2.818-5.182-4.6-8.522s-3.385-6.357-4.6-8.516c-.592-1.057-1.077-1.92-1.44-2.553-.153-.281-.281-.511-.388-.694a.915.915,0,0,1-.117-.255,1.683,1.683,0,0,1,.163.225l.434.674c.368.587.888,1.44,1.532,2.517,1.251,2.139,2.895,5.142,4.667,8.481l4.519,8.562,1.373,2.589c.148.286.266.511.368.71A1.048,1.048,0,0,1,193.732,329.637Z" transform="translate(-158.094 -204.96)"/><path class="a" d="M204.078,293.87a2.2,2.2,0,0,1,0,.4v1.144c0,1,0,2.435.056,4.217.061,3.574.245,8.47.541,13.893s.659,10.329.945,13.877c.143,1.751.26,3.181.342,4.2.036.475.066.853.087,1.139a2,2,0,0,1,0,.4,2.365,2.365,0,0,1-.066-.4l-.138-1.134c-.112-.991-.266-2.425-.429-4.2-.332-3.543-.72-8.45-1.021-13.878s-.449-10.344-.465-13.908c0-1.777,0-3.222.026-4.217,0-.475.031-.858.041-1.144A1.91,1.91,0,0,1,204.078,293.87Z" transform="translate(-169.522 -199.205)"/><path class="a" d="M267.732,409.845a.43.43,0,0,1-.138-.046l-.393-.158L265.7,409c-.654-.276-1.45-.623-2.359-1.062s-1.955-.9-3.063-1.486l-1.772-.9c-.618-.317-1.241-.674-1.894-1.021-1.317-.7-2.686-1.532-4.131-2.369-2.864-1.741-5.953-3.758-9.078-6.04s-5.969-4.636-8.486-6.847c-1.246-1.128-2.435-2.185-3.5-3.232-.536-.511-1.062-1.021-1.532-1.5l-1.425-1.414c-.9-.893-1.659-1.751-2.344-2.492s-1.261-1.389-1.721-1.93l-1.057-1.241-.271-.327A.573.573,0,0,1,223,377a.6.6,0,0,1,.107.1l.291.306,1.093,1.21c.475.511,1.052,1.174,1.751,1.894s1.465,1.578,2.369,2.461l1.4,1.409c.511.485,1.021.97,1.532,1.486,1.067,1.021,2.262,2.088,3.5,3.206,2.527,2.2,5.376,4.524,8.486,6.816s6.193,4.3,9.047,6.045c1.44.853,2.8,1.68,4.085,2.384.654.357,1.276.72,1.889,1.021l1.762.919c1.118.6,2.155,1.077,3.063,1.532s1.685.812,2.333,1.1l1.481.684.383.184Z" transform="translate(-178.855 -239.891)"/><path class="a" d="M158.567,390.53l26.979,29.241,2.042,4.345-4.325-2.15-27.387-28.94a1.843,1.843,0,0,1,.168-2.691h0A1.838,1.838,0,0,1,158.567,390.53Z" transform="translate(-145.757 -246.216)"/><path class="a" d="M357.962,328.29a.734.734,0,0,1,0,.153v.449c0,.414,0,.99-.026,1.726-.036,1.532-.087,3.676-.153,6.341-.128,5.366-.306,12.764-.511,20.934s-.276,15.552-.373,20.934c-.046,2.665-.087,4.825-.112,6.341,0,.735-.036,1.312-.046,1.726v.444a.077.077,0,1,1-.031,0v-2.17c0-1.532,0-3.681.031-6.341.041-5.356.123-12.764.3-20.934s.4-15.562.577-20.934c.1-2.665.179-4.825.235-6.341.036-.73.061-1.307.082-1.721l.026-.449A.713.713,0,0,1,357.962,328.29Z" transform="translate(-244.267 -216.051)"/><g class="e" transform="translate(46.6 139.938)"><path d="M227.81,382.54s12.254,8.481,19.2,11.233,14.072,5.039,20.755,8.343c1.961.97,4.187,2.619,3.783,4.769a3.589,3.589,0,0,1-2.783,2.578,10.57,10.57,0,0,1-3.983-.071l-1.71-.107S241.335,398.128,227.81,382.54Z" transform="translate(-227.81 -382.54)"/></g><path class="a" d="M374.138,397.737a8.275,8.275,0,0,1-.914.128,21.239,21.239,0,0,0-2.471.48A19.259,19.259,0,0,0,358.208,408.4a20.654,20.654,0,0,0-1.021,2.308,7.981,7.981,0,0,1-.327.868.751.751,0,0,1,.041-.235c.041-.153.092-.383.189-.664a17,17,0,0,1,.934-2.359,18.749,18.749,0,0,1,12.693-10.155,17.365,17.365,0,0,1,2.5-.4c.3-.031.511-.026.689-.036A.869.869,0,0,1,374.138,397.737Z" transform="translate(-244.37 -250.033)"/><g class="e" transform="translate(112.465 145.225)"><path d="M356.81,408.552a19.4,19.4,0,0,1,11.9-15.251,4.085,4.085,0,0,1,2.206-.383,1.644,1.644,0,0,1,1.424,1.532c-.031,1.1-1.363,1.588-2.41,1.92a18.486,18.486,0,0,0-7.557,5,55.35,55.35,0,0,0-5.555,7.266" transform="translate(-356.81 -392.895)"/></g><g class="e" transform="translate(13.122 139.9)"><path d="M179.043,398.49a18.381,18.381,0,0,0-12.121-15.619,5.9,5.9,0,0,0-2.441-.4,2.553,2.553,0,0,0-2.042,1.261,2.615,2.615,0,0,0,.7,2.9,7.189,7.189,0,0,0,2.808,1.465c2.854.96,5.836,1.777,8.266,3.574s3.155,3.942,4.815,6.832" transform="translate(-162.24 -382.466)"/></g><path class="f" d="M280.711,280.287l-.225.138-.679.388-1.1.618c-.439.24-.939.511-1.532.807a68.932,68.932,0,0,1-10.212,4.176l-1.705.541-1.807.485c-.613.158-1.236.347-1.884.485l-1.971.424-1.021.22-1.021.174-2.129.352c-.72.107-1.46.179-2.206.271s-1.5.189-2.267.23l-2.333.163-2.395.066h-1.215l-1.23-.026c-.822-.031-1.654,0-2.492-.082A71.927,71.927,0,0,1,231,288.4a76.153,76.153,0,0,1-9.987-2.767c-3.171-1.1-6.173-2.3-9.012-3.487-5.673-2.389-10.722-4.646-15.077-6.321a56.266,56.266,0,0,0-10.477-3.3,15.83,15.83,0,0,0-2.982-.2c-.342,0-.6.031-.776.046a1.148,1.148,0,0,1-.266,0,7.368,7.368,0,0,1,1.021-.112,14.728,14.728,0,0,1,3,.148,54.806,54.806,0,0,1,10.533,3.227c4.35,1.649,9.425,3.9,15.1,6.27,2.844,1.174,5.841,2.374,9,3.467a76.433,76.433,0,0,0,9.966,2.772,72.025,72.025,0,0,0,10.263,1.333c.832.061,1.664.056,2.481.082l1.225.031h1.21l2.384-.061,2.328-.158c.766-.041,1.532-.133,2.262-.22s1.476-.163,2.2-.265l2.119-.347,1.021-.168,1.021-.214,1.971-.419c.643-.133,1.266-.322,1.879-.475l1.8-.475,1.705-.511a71.924,71.924,0,0,0,10.212-4.085c.6-.265,1.1-.551,1.532-.786l1.118-.6.689-.357Z" transform="translate(-158.995 -188.619)"/><path class="f" d="M189.232,302.285a2.956,2.956,0,0,1-.557-.3l-1.47-.9a36.575,36.575,0,0,0-5.009-2.635,16.5,16.5,0,0,0-5.463-1.282c-1.45-.061-2.338.128-2.344.071a2.62,2.62,0,0,1,.618-.138,9.874,9.874,0,0,1,1.736-.1,15.348,15.348,0,0,1,5.56,1.225,30.642,30.642,0,0,1,5.009,2.721c.608.4,1.093.73,1.425.965a2.858,2.858,0,0,1,.5.378Z" transform="translate(-155.065 -200.733)"/><path class="f" d="M283.849,325.489l-.184.1-.557.291-.9.454-1.256.572a46.078,46.078,0,0,1-8.368,2.727,58.609,58.609,0,0,1-12.974,1.4,83.158,83.158,0,0,1-15.9-1.634c-5.576-1.077-10.794-2.553-15.5-3.931s-8.915-2.783-12.433-3.993-6.336-2.246-8.276-2.982l-2.236-.868-.577-.235a1.141,1.141,0,0,1-.194-.087,1.064,1.064,0,0,1,.2.061l.587.209,2.252.812c1.95.7,4.784,1.716,8.3,2.9s7.73,2.553,12.443,3.937,9.921,2.834,15.481,3.906a84.011,84.011,0,0,0,15.828,1.659,59.189,59.189,0,0,0,12.933-1.343,48.621,48.621,0,0,0,8.368-2.635l1.266-.551.914-.434.562-.26a.8.8,0,0,1,.22-.082Z" transform="translate(-169.796 -210.677)"/><path class="f" d="M370.259,317.2a14.561,14.561,0,0,1-1.736.511c-1.077.306-2.553.756-4.151,1.373s-2.987,1.282-3.993,1.782a13.947,13.947,0,0,1-1.639.781,1.781,1.781,0,0,1,.4-.281c.265-.168.659-.4,1.149-.669a33.995,33.995,0,0,1,3.982-1.864,34.572,34.572,0,0,1,4.2-1.307c.546-.133,1-.225,1.3-.281A2.137,2.137,0,0,1,370.259,317.2Z" transform="translate(-245.29 -210.623)"/><path class="f" d="M184.538,345.544a5.372,5.372,0,0,1-.73-.47c-.23-.158-.511-.352-.848-.556s-.7-.465-1.144-.7a32.224,32.224,0,0,0-3.074-1.578,31.088,31.088,0,0,0-8.169-2.379,32.476,32.476,0,0,0-3.472-.317c-.511-.031-.945,0-1.343,0h-1.021a4.734,4.734,0,0,1-.868,0,6.48,6.48,0,0,1,.863-.1c.276-.031.618-.056,1.021-.061a13.156,13.156,0,0,1,1.348,0,29.3,29.3,0,0,1,3.5.26,33.238,33.238,0,0,1,4.207.9,31.4,31.4,0,0,1,4.028,1.506,27.125,27.125,0,0,1,3.094,1.659c.434.25.8.511,1.128.74s.608.424.827.6A5.734,5.734,0,0,1,184.538,345.544Z" transform="translate(-149.916 -221.47)"/><path class="f" d="M284.1,369.637l-.194.066-.572.158c-.511.128-1.246.357-2.216.572a71.089,71.089,0,0,1-8.3,1.424,84.881,84.881,0,0,1-12.479.47,118.137,118.137,0,0,1-15.21-1.562,214.645,214.645,0,0,1-26.964-6.638c-3.4-1.021-6.127-1.915-8.031-2.522l-2.175-.71-.567-.194-.189-.071a.888.888,0,0,1,.2.046l.572.168,2.19.659,8.052,2.446a223.6,223.6,0,0,0,26.953,6.556,121.59,121.59,0,0,0,15.179,1.578,88.223,88.223,0,0,0,12.448-.408,77.049,77.049,0,0,0,8.3-1.343c.975-.194,1.716-.408,2.226-.511l.582-.133Z" transform="translate(-171.123 -231.879)"/><path class="f" d="M374.114,351.778a3.524,3.524,0,0,1-.618.148l-1.705.342c-1.43.3-3.4.781-5.53,1.455a56.574,56.574,0,0,0-5.351,2.012l-1.588.7a2.816,2.816,0,0,1-.592.235,3.113,3.113,0,0,1,.546-.332c.362-.2.893-.465,1.557-.781a44.4,44.4,0,0,1,10.921-3.477c.725-.128,1.312-.214,1.721-.26a2.847,2.847,0,0,1,.638-.046Z" transform="translate(-245.285 -227.545)"/><path class="f" d="M178.89,381.991a9.7,9.7,0,0,1-.546-.848,20.509,20.509,0,0,0-1.608-2.2,19.3,19.3,0,0,0-15.874-6.949,20.421,20.421,0,0,0-2.711.306,9.5,9.5,0,0,1-.991.174,1.081,1.081,0,0,1,.245-.087c.168-.041.408-.123.725-.189a17.47,17.47,0,0,1,2.721-.393,18.835,18.835,0,0,1,16.027,7.02,17.869,17.869,0,0,1,1.557,2.267c.163.276.271.511.352.659A.8.8,0,0,1,178.89,381.991Z" transform="translate(-146.632 -237.325)"/><path class="f" d="M238.209,410.36c0,.071-5.851-.95-13.045-2.282s-13.01-2.466-12.994-2.553,5.851.95,13.045,2.277S238.225,410.3,238.209,410.36Z" transform="translate(-173.555 -253.849)"/><path class="f" d="M317.057,423.238a2.412,2.412,0,0,1-.414.036l-1.185.056c-1.021.046-2.512.092-4.355.133-3.676.082-8.762.112-14.373,0s-10.691-.378-14.363-.623c-1.838-.117-3.324-.23-4.345-.322l-1.179-.107a2.1,2.1,0,0,1-.414-.056,3.6,3.6,0,0,1,.414,0l1.185.056,4.35.24c3.671.194,8.746.414,14.357.536s10.691.123,14.368.087l4.355-.046h1.185A2.151,2.151,0,0,1,317.057,423.238Z" transform="translate(-205.005 -262.085)"/><path class="f" d="M377.083,388.976a4.158,4.158,0,0,1-.807.031c-.511,0-1.271,0-2.2.077s-2.042.163-3.232.347a33.647,33.647,0,0,0-7.659,2.15c-1.128.475-2.129.945-2.946,1.384s-1.46.807-1.92,1.082a4.955,4.955,0,0,1-.7.393,4.694,4.694,0,0,1,.648-.48c.424-.3,1.067-.7,1.879-1.159a30.489,30.489,0,0,1,2.936-1.44,32.659,32.659,0,0,1,3.789-1.333,33.668,33.668,0,0,1,3.921-.832,29.323,29.323,0,0,1,3.257-.3c.934-.031,1.69-.026,2.206,0A4.123,4.123,0,0,1,377.083,388.976Z" transform="translate(-244.742 -245.704)"/><path class="f" d="M167.189,412.406s-.225-.419-.679-1.144a11.5,11.5,0,0,0-2.384-2.686,14.067,14.067,0,0,0-4.672-2.553,15.889,15.889,0,0,0-6.464-.664,20.394,20.394,0,0,0-6.265,1.813,27.682,27.682,0,0,0-4.6,2.742c-1.241.9-2.19,1.7-2.834,2.262-.327.276-.567.511-.74.648a2.175,2.175,0,0,1-.266.22,1.312,1.312,0,0,1,.23-.255c.163-.158.393-.4.71-.689a31.787,31.787,0,0,1,2.788-2.338,26.752,26.752,0,0,1,4.6-2.808,20.172,20.172,0,0,1,6.336-1.833,16.011,16.011,0,0,1,6.566.694,14.021,14.021,0,0,1,4.718,2.619,10.849,10.849,0,0,1,2.349,2.772,7.619,7.619,0,0,1,.46.883,1.367,1.367,0,0,1,.148.316Z" transform="translate(-137.396 -253.612)"/><path class="f" d="M258.182,445.624h-.557l-1.6-.107c-1.389-.087-3.4-.26-5.872-.511s-5.417-.608-8.68-1.077-6.826-1.077-10.549-1.823-7.25-1.593-10.431-2.42-6.03-1.675-8.4-2.435c-1.19-.363-2.252-.735-3.191-1.021s-1.741-.6-2.395-.842l-1.5-.587-.388-.153-.128-.056.138.031.4.128,1.532.51c.659.23,1.465.511,2.4.8s2.007.659,3.2,1.021c2.374.735,5.223,1.532,8.4,2.379s6.7,1.639,10.421,2.395,7.281,1.348,10.533,1.843,6.188.858,8.68,1.128,4.473.475,5.856.6l1.6.153.414.046Z" transform="translate(-169.801 -268.076)"/><path class="b" d="M183.76,415.11l7.214,2.313,2.686-.46,4.544,1.251a3.36,3.36,0,0,1,2.456,3.508,19.78,19.78,0,0,1-.618,3.518c-1.108,4.212-2.961,4.12-4.9,3.574s-2.839-2.139-2.992-4.631l-4.6-2.512Z" transform="translate(-159.651 -258.542)"/><path class="c" d="M197.863,428.4a4.83,4.83,0,0,1-1.772-2.16,4.754,4.754,0,0,1-.511-2.742,12.5,12.5,0,0,0,.761,2.63,13.153,13.153,0,0,0,1.521,2.272Z" transform="translate(-165.421 -262.649)"/><path class="b" d="M156,413.955s-5.938.735-7.6,3.574-3.651,10.86-3.651,10.86l5.616,6.586s22.838.95,23.553,0-.25-2-.25-2,2.808,1.261,4,.429a3.945,3.945,0,0,0,1.169-3.947,9.316,9.316,0,0,0-5.167-5.29,98.343,98.343,0,0,1-8.879-5.346s-4.274-4.273-5.106-4.871S156,413.955,156,413.955Z" transform="translate(-140.558 -257.847)"/><path class="c" d="M182.66,439.014a.949.949,0,0,1-.245-.061l-.679-.23-2.486-.894c-2.1-.761-4.988-1.828-8.169-3.028a12.767,12.767,0,0,1-4.238-2.282,11.182,11.182,0,0,1-2.344-3.166,23.994,23.994,0,0,1-1.077-2.415c-.112-.3-.2-.511-.25-.674a.8.8,0,0,1-.071-.245,1.339,1.339,0,0,1,.117.225c.066.153.179.393.3.654.26.567.623,1.394,1.149,2.369a11.35,11.35,0,0,0,2.344,3.063,12.39,12.39,0,0,0,4.166,2.216c3.186,1.2,6.066,2.3,8.169,3.1l2.456.97.664.276a.889.889,0,0,1,.2.117Z" transform="translate(-149.539 -263.882)"/><path class="c" d="M171,452.061a5.614,5.614,0,0,1-1.169-.511c-.7-.342-1.664-.842-2.691-1.45s-1.93-1.205-2.553-1.659a5.556,5.556,0,0,1-.991-.791,6.523,6.523,0,0,1,1.093.633c.659.414,1.573.985,2.594,1.588s1.966,1.133,2.645,1.532a6.537,6.537,0,0,1,1.072.659Z" transform="translate(-149.784 -274.468)"/><path class="c" d="M153.522,437.3s-.128-.163,0-.511a5.464,5.464,0,0,1,.745-1.088,1.144,1.144,0,0,0,.194-.8,3.7,3.7,0,0,0-.317-.95,10.213,10.213,0,0,1-.735-2.3,4.452,4.452,0,0,1,.225-2.41,2.777,2.777,0,0,1,1.338-1.465,2.226,2.226,0,0,1,1.312-.23.873.873,0,0,1,.465.153,3.332,3.332,0,0,0-.47-.051,2.3,2.3,0,0,0-1.22.3,2.635,2.635,0,0,0-1.195,1.389,4.217,4.217,0,0,0-.189,2.277,10.573,10.573,0,0,0,.694,2.241,3.824,3.824,0,0,1,.311,1.021,1.287,1.287,0,0,1-.26.919,7.662,7.662,0,0,0-.8,1.021,1.164,1.164,0,0,0-.1.48Z" transform="translate(-144.76 -264.622)"/><path class="c" d="M176.2,426.35a6.311,6.311,0,0,0-3.666,3.671,1.71,1.71,0,0,1,.179-.786,4.723,4.723,0,0,1,1.072-1.634,4.784,4.784,0,0,1,1.629-1.072,1.711,1.711,0,0,1,.786-.179Z" transform="translate(-154.154 -264.043)"/><path class="c" d="M205.714,437.651a1.3,1.3,0,0,1-.327.148,3.576,3.576,0,0,1-.965.168,4.284,4.284,0,0,1-4.5-3.875,3.721,3.721,0,0,1,0-.985.96.96,0,0,1,.1-.347c.051,0-.056.511.066,1.307a4.314,4.314,0,0,0,4.314,3.712A12.169,12.169,0,0,0,205.714,437.651Z" transform="translate(-167.543 -267.181)"/><path class="b" d="M359.418,420.314l12-7.659a10.375,10.375,0,0,1,2.859,0,3.155,3.155,0,0,1,2.042,1.486l2.742.23,7.2,6.515,3.753.572.7,1.368-1.373,5.2s-3.431,3.5-5.943,2.124l-3.2.322-2.854-.322s.225,2.732-.8,2.732-2.742-.342-3.2-1.144a27.728,27.728,0,0,1-1.256-3.2l-2.742,2.854s-2.553,2.762-4,1.486c-1.241-1.077-1.373-1.71-1.373-1.71h0a5.751,5.751,0,0,1-3.191-.347c-1.149-.689-2.977-.342-3.436-2.8S357.191,421.733,359.418,420.314Z" transform="translate(-244.517 -257.292)"/><path class="c" d="M384.274,435.445a1.95,1.95,0,0,1-.235-.47,9.913,9.913,0,0,1-.424-1.363,41.708,41.708,0,0,1-.654-4.651,12.973,12.973,0,0,0-1.225-4.452,14.8,14.8,0,0,0-1.057-1.608,2.621,2.621,0,0,1,.388.352,6.455,6.455,0,0,1,.832,1.169,11.891,11.891,0,0,1,1.328,4.508c.214,1.823.322,3.472.572,4.641S384.315,435.43,384.274,435.445Z" transform="translate(-256.028 -262.355)"/><path class="c" d="M397.169,425.08c.041,0-.189.643-.475,1.685a23.216,23.216,0,0,0-.735,4.136,23.6,23.6,0,0,0,.051,4.2c.112,1.072.24,1.731.194,1.741a1.726,1.726,0,0,1-.138-.454,11.748,11.748,0,0,1-.24-1.261,19,19,0,0,1,.689-8.409,11.986,11.986,0,0,1,.439-1.21A1.531,1.531,0,0,1,397.169,425.08Z" transform="translate(-263.347 -263.422)"/><path class="c" d="M397.869,436.549a4.911,4.911,0,0,0-1.179.751,4.844,4.844,0,0,0-.725,1.195c-.036,0-.061-.174,0-.444a2.109,2.109,0,0,1,1.455-1.486C397.69,436.493,397.864,436.513,397.869,436.549Z" transform="translate(-263.49 -269.019)"/><path class="c" d="M401.464,429.89a17.54,17.54,0,0,1-1.185,1.823,16.492,16.492,0,0,1-1.2,1.813,6.361,6.361,0,0,1,.975-1.961A6.127,6.127,0,0,1,401.464,429.89Z" transform="translate(-265.033 -265.776)"/><path class="c" d="M400.8,428.848a1.869,1.869,0,0,1-1.072-1.052,1.8,1.8,0,0,1-.174-1.5,8.916,8.916,0,0,0,.408,1.379,9.411,9.411,0,0,0,.837,1.169Z" transform="translate(-265.222 -264.019)"/><path class="c" d="M407.54,438.286a11.706,11.706,0,0,1,1.082-1.087,7.765,7.765,0,0,0,2.042-2.992,7.557,7.557,0,0,0,.163-3.6,14.5,14.5,0,0,1-.23-1.532,6.514,6.514,0,0,1,.414,1.486,7.093,7.093,0,0,1-.092,3.722,7.317,7.317,0,0,1-2.15,3.063A6.939,6.939,0,0,1,407.54,438.286Z" transform="translate(-269.174 -265.375)"/><path class="c" d="M414.444,441.281a1.682,1.682,0,0,1-.465-.557,2.9,2.9,0,0,1,.373-3.314c.3-.337.557-.46.577-.434s-.184.209-.429.551a3.145,3.145,0,0,0-.352,3.115C414.326,441.036,414.479,441.25,414.444,441.281Z" transform="translate(-272.151 -269.243)"/><path class="c" d="M378.2,431.723a17.093,17.093,0,0,0,1.19-2.992,17.529,17.529,0,0,0,.337-3.2,2.665,2.665,0,0,1,.148.95,7.939,7.939,0,0,1-.23,2.313,8.113,8.113,0,0,1-.868,2.16A2.726,2.726,0,0,1,378.2,431.723Z" transform="translate(-254.814 -263.642)"/><path class="c" d="M376.188,432.5a6.894,6.894,0,0,1-.408-1.879,7,7,0,0,1-.143-1.915,7.149,7.149,0,0,1,.408,1.879A7.243,7.243,0,0,1,376.188,432.5Z" transform="translate(-253.553 -265.199)"/><path class="c" d="M375.8,441.406a4.34,4.34,0,0,0,.9-1.384,3.671,3.671,0,0,0,.2-1.751,3.211,3.211,0,0,0-.97-1.889c-.557-.541-1.2-.96-1.721-1.435a10.677,10.677,0,0,1-1.266-1.348,9.181,9.181,0,0,1-.7-1.021,1.355,1.355,0,0,1-.2-.408c.036,0,.373.511,1.021,1.317a12.691,12.691,0,0,0,1.287,1.287c.511.454,1.154.858,1.741,1.43a3.344,3.344,0,0,1,1.021,2.042,3.706,3.706,0,0,1-.26,1.853,3.12,3.12,0,0,1-.7,1.021,1.021,1.021,0,0,1-.342.286Z" transform="translate(-251.799 -266.892)"/><path class="c" d="M373.194,443.391a4.435,4.435,0,0,1-.557.362,3.171,3.171,0,0,0-1.414,2.629,5.282,5.282,0,0,1,0,.664,1.154,1.154,0,0,1-.194-.659,2.869,2.869,0,0,1,1.511-2.793C372.918,443.4,373.183,443.36,373.194,443.391Z" transform="translate(-251.298 -272.379)"/><path class="a" d="M263.69,126.944c-4.427,8.527-4.927,18.524-4.6,28.128s1.45,19.295-.123,28.776c-.618,3.727-1.649,7.5-1.057,11.233.342,2.2,1.236,4.268,1.69,6.443s.393,4.631-.97,6.387a6.339,6.339,0,0,1-6.055,2.042,10.826,10.826,0,0,1-5.693-3.37c-3.385-3.528-5.162-8.353-5.831-13.2a70.19,70.19,0,0,1,.031-14.643q1.379-19.034,2.747-38.058c.4-5.484.822-11.095,3.063-16.129a27.97,27.97,0,0,1,11.442-12.5c5.907-3.513,13.551-5.039,19.642-1.853,2.042,1.067,3.988,3.1,3.5,5.346-.378,1.772-2.109,2.869-3.681,3.768l-15.588,8.869" transform="translate(-187.506 -108.462)"/><path class="a" d="M270.318,211.67c-.168-.087.158-1.072.822-2.793s1.654-4.2,2.681-7.3a49.389,49.389,0,0,0,2.374-11.064,52.582,52.582,0,0,0-1.052-13.786,134.583,134.583,0,0,1-2.206-14.179,34.632,34.632,0,0,1,1.072-11.876,19.4,19.4,0,0,1,3.681-7.179c.322-.357.608-.664.863-.929a8.07,8.07,0,0,1,.7-.6c.4-.306.638-.434.7-.368s-.041.317-.3.73l-.511.74c-.179.3-.388.643-.633,1.021a23.171,23.171,0,0,0-2.7,7.036,36.965,36.965,0,0,0-.454,11.233c.408,4.238,1.481,8.9,2.384,13.908a49.494,49.494,0,0,1,.868,14.506,43.584,43.584,0,0,1-3.063,11.478,55.226,55.226,0,0,1-3.518,7.1C271.109,210.93,270.476,211.747,270.318,211.67Z" transform="translate(-201.993 -124.674)"/><path class="g" d="M239.64,135.56a2.37,2.37,0,0,1,.408-.153l1.185-.383c.511-.158,1.149-.363,1.879-.613s1.557-.511,2.466-.863c1.823-.648,3.967-1.491,6.321-2.5s4.891-2.221,7.511-3.574,5.034-2.808,7.2-4.166,4.085-2.67,5.616-3.809c.8-.551,1.486-1.093,2.1-1.532s1.144-.863,1.567-1.2l.985-.761a3.3,3.3,0,0,1,.357-.255,2.347,2.347,0,0,1-.322.3l-.96.8c-.414.347-.924.771-1.532,1.236s-1.3,1.021-2.083,1.588c-1.557,1.159-3.457,2.471-5.616,3.86s-4.6,2.808-7.214,4.2-5.177,2.553-7.536,3.574-4.5,1.8-6.341,2.446c-.909.332-1.751.587-2.481.822s-1.373.429-1.894.577l-1.2.332a2.422,2.422,0,0,1-.424.082Z" transform="translate(-186.999 -112.029)"/><path class="g" d="M239.43,140.181a2.373,2.373,0,0,1,.434-.087l1.261-.189.909-.128,1.077-.194c.771-.148,1.654-.281,2.614-.511l1.532-.342c.511-.123,1.062-.286,1.624-.434,1.128-.281,2.3-.679,3.549-1.072a63.9,63.9,0,0,0,15.19-7.465c1.072-.745,2.1-1.435,3.018-2.15.46-.357.914-.684,1.333-1.021l1.195-.991c.771-.613,1.419-1.23,2.007-1.746l.812-.735.659-.638c.383-.373.689-.669.919-.883a3.066,3.066,0,0,1,.332-.3,3.059,3.059,0,0,1-.3.332l-.883.919-.669.638c-.24.235-.511.48-.8.751-.582.511-1.22,1.159-1.991,1.787l-1.185,1.021c-.414.347-.868.679-1.328,1.021-.909.73-1.94,1.425-3.012,2.18a67.786,67.786,0,0,1-7.368,4.274,68.367,68.367,0,0,1-7.878,3.227c-1.251.388-2.435.776-3.574,1.052-.567.143-1.108.3-1.634.419l-1.532.327c-.965.225-1.853.347-2.624.511-.388.061-.751.128-1.082.174l-.914.107-1.266.138C239.583,140.176,239.43,140.186,239.43,140.181Z" transform="translate(-186.897 -114.745)"/><path class="g" d="M253.4,223.909a.681.681,0,0,0-.036-.174c-.036-.117-.046-.3-.082-.511-.066-.454-.174-1.123-.26-1.986a65.135,65.135,0,0,1-.388-7.347c0-3.109.179-6.811.562-10.9s.929-8.573,1.46-13.275c1.1-9.41,2.1-17.926,2.823-24.109.368-3.063.674-5.56.883-7.3.107-.848.194-1.532.255-1.981a2.648,2.648,0,0,1,.071-.511.755.755,0,0,1,.031-.174.678.678,0,0,1,0,.179c0,.128-.026.3-.046.511-.051.47-.117,1.139-.2,1.991-.189,1.741-.465,4.233-.8,7.311-.7,6.183-1.67,14.7-2.742,24.115-.536,4.708-1.088,9.19-1.481,13.275s-.623,7.766-.623,10.87a71.953,71.953,0,0,0,.3,7.337c.071.863.163,1.532.214,1.986a3.425,3.425,0,0,0,.056.511.679.679,0,0,1,.005.184Z" transform="translate(-193.357 -131.552)"/><path class="g" d="M266.712,193.286a2.4,2.4,0,0,1-.046-.429c0-.3-.046-.715-.082-1.23-.061-1.067-.133-2.614-.2-4.529-.138-3.824-.24-9.114-.158-14.96s.327-11.131.572-14.95c.123-1.91.235-3.457.332-4.524.046-.511.082-.919.112-1.225a2.242,2.242,0,0,1,.056-.429,2.185,2.185,0,0,1,0,.434l-.061,1.23c-.061,1.093-.143,2.635-.245,4.524-.2,3.824-.414,9.1-.511,14.945s0,11.125.082,14.95c.051,1.894.092,3.436.123,4.529,0,.511,0,.929.026,1.236A3.444,3.444,0,0,1,266.712,193.286Z" transform="translate(-199.995 -129.286)"/></svg>