<svg id="account-icon" xmlns="http://www.w3.org/2000/svg" width="16.667" height="16.667" viewBox="0 0 16.667 16.667">
  <path id="account-icon-2" data-name="account-icon" d="M10-1.667A8.159,8.159,0,0,1,5.8-2.8a8.436,8.436,0,0,1-3-3A8.159,8.159,0,0,1,1.667-10,8.159,8.159,0,0,1,2.8-14.2a8.436,8.436,0,0,1,3-3A8.159,8.159,0,0,1,10-18.333,8.159,8.159,0,0,1,14.2-17.2a8.436,8.436,0,0,1,3,3A8.159,8.159,0,0,1,18.333-10,8.159,8.159,0,0,1,17.2-5.8a8.436,8.436,0,0,1-3,3A8.159,8.159,0,0,1,10-1.667ZM5.85-4.783A6.691,6.691,0,0,0,7.8-3.708a6.586,6.586,0,0,0,2.2.375,6.62,6.62,0,0,0,2.333-.417A6.316,6.316,0,0,0,14.3-4.917a5.794,5.794,0,0,0-1.9-1.292,5.759,5.759,0,0,0-2.267-.458,5.787,5.787,0,0,0-2.342.492A5.642,5.642,0,0,0,5.85-4.783Zm-1.167-1.2A7.371,7.371,0,0,1,7.167-7.725a7.442,7.442,0,0,1,2.967-.608A7.493,7.493,0,0,1,13-7.767a7.222,7.222,0,0,1,2.433,1.633,6.53,6.53,0,0,0,1.183-3.05,6.617,6.617,0,0,0-.367-3.15,6.532,6.532,0,0,0-1.85-2.675A6.647,6.647,0,0,0,11.5-16.5a6.566,6.566,0,0,0-3.183.05,6.5,6.5,0,0,0-2.85,1.567A6.684,6.684,0,0,0,3.683-12.15a6.658,6.658,0,0,0-.267,3.167A6.545,6.545,0,0,0,4.683-5.983ZM10-9.167a3.235,3.235,0,0,1-1.667-.45,3.361,3.361,0,0,1-1.217-1.217,3.235,3.235,0,0,1-.45-1.667,3.235,3.235,0,0,1,.45-1.667,3.361,3.361,0,0,1,1.217-1.217A3.235,3.235,0,0,1,10-15.833a3.235,3.235,0,0,1,1.667.45,3.361,3.361,0,0,1,1.217,1.217,3.235,3.235,0,0,1,.45,1.667,3.235,3.235,0,0,1-.45,1.667,3.361,3.361,0,0,1-1.217,1.217A3.235,3.235,0,0,1,10-9.167Zm0-1.667a1.6,1.6,0,0,0,1.175-.492,1.6,1.6,0,0,0,.492-1.175,1.6,1.6,0,0,0-.492-1.175A1.6,1.6,0,0,0,10-14.167a1.6,1.6,0,0,0-1.175.492A1.6,1.6,0,0,0,8.333-12.5a1.6,1.6,0,0,0,.492,1.175A1.6,1.6,0,0,0,10-10.833Z" transform="translate(-1.667 18.333)"/>
</svg>
