<svg id="password-icon" xmlns="http://www.w3.org/2000/svg" width="15" height="17.5" viewBox="0 0 15 17.5">
  <path id="password-icon-2" data-name="password-icon" d="M15-13.333h1.667a.8.8,0,0,1,.592.242.8.8,0,0,1,.242.592v10a.8.8,0,0,1-.242.592.8.8,0,0,1-.592.242H3.333a.8.8,0,0,1-.592-.242A.8.8,0,0,1,2.5-2.5v-10a.8.8,0,0,1,.242-.592.8.8,0,0,1,.592-.242H5v-.833a4.895,4.895,0,0,1,.683-2.517,4.992,4.992,0,0,1,1.8-1.8A4.895,4.895,0,0,1,10-19.167a4.895,4.895,0,0,1,2.517.683,4.992,4.992,0,0,1,1.8,1.8A4.895,4.895,0,0,1,15-14.167ZM4.167-11.667v8.333H15.833v-8.333Zm5,3.333h1.667v1.667H9.167Zm-3.333,0H7.5v1.667H5.833Zm6.667,0h1.667v1.667H12.5Zm.833-5v-.833a3.235,3.235,0,0,0-.45-1.667,3.361,3.361,0,0,0-1.217-1.217A3.235,3.235,0,0,0,10-17.5a3.235,3.235,0,0,0-1.667.45,3.361,3.361,0,0,0-1.217,1.217,3.235,3.235,0,0,0-.45,1.667v.833Z" transform="translate(-2.5 19.167)"/>
</svg>
