<svg id="user-icon" xmlns="http://www.w3.org/2000/svg" width="14.333" height="16.5" viewBox="0 0 14.333 16.5">
  <path id="user-icon-2" data-name="user-icon" d="M10-5.833a9.789,9.789,0,0,1,4.183.9,7.69,7.69,0,0,1,2.983,2.367l-1.533.733a6.3,6.3,0,0,0-2.367-1.7A8.392,8.392,0,0,0,10-4.167a8.392,8.392,0,0,0-3.267.633,6.3,6.3,0,0,0-2.367,1.7L2.833-2.567A7.493,7.493,0,0,1,5.817-4.933,9.789,9.789,0,0,1,10-5.833Zm0-12.5a4.082,4.082,0,0,1,2.092.558,4.137,4.137,0,0,1,1.517,1.517,4.082,4.082,0,0,1,.558,2.092v2.5a4.028,4.028,0,0,1-.533,2.033,4.262,4.262,0,0,1-1.442,1.508,4.032,4.032,0,0,1-2.008.625H10a4.082,4.082,0,0,1-2.092-.558A4.137,4.137,0,0,1,6.392-9.575a4.082,4.082,0,0,1-.558-2.092v-2.5A4.028,4.028,0,0,1,6.367-16.2a4.262,4.262,0,0,1,1.442-1.508,4.032,4.032,0,0,1,2.008-.625Zm0,1.667a2.459,2.459,0,0,0-1.208.308,2.446,2.446,0,0,0-.9.85A2.569,2.569,0,0,0,7.5-14.317v2.65a2.436,2.436,0,0,0,.325,1.233,2.517,2.517,0,0,0,.883.908,2.422,2.422,0,0,0,1.225.358,2.453,2.453,0,0,0,1.242-.292,2.475,2.475,0,0,0,.925-.85,2.54,2.54,0,0,0,.4-1.208v-2.65a2.465,2.465,0,0,0-.333-1.258,2.457,2.457,0,0,0-.908-.908A2.465,2.465,0,0,0,10-16.667Z" transform="translate(-2.833 18.333)"/>
</svg>
