<svg xmlns="http://www.w3.org/2000/svg" xmlns:xlink="http://www.w3.org/1999/xlink" width="24" height="24" preserveAspectRatio="xMidYMid meet" viewBox="0 0 24 24" style="-ms-transform: rotate(360deg); -webkit-transform: rotate(360deg); transform: rotate(360deg);"><path d="M12 1l9.5 5.5v11L12 23l-9.5-5.5v-11L12 1zm0 2.311L4.5 7.653v8.694l7.5 4.342l7.5-4.342V7.653L12 3.311zM12 16a4 4 0 1 1 0-8a4 4 0 0 1 0 8zm0-2a2 2 0 1 0 0-4a2 2 0 0 0 0 4z" fill="#626262"/><rect x="0" y="0" width="24" height="24" fill="rgba(0, 0, 0, 0)" /></svg>